<svg id="svg" version="1.1" xmlns="http://www.w3.org/2000/svg" xmlns:xlink="http://www.w3.org/1999/xlink" width="400" height="257.1428571428571" viewBox="0, 0, 400,257.1428571428571"><g id="svgg"><path id="path0" d="M254.544 40.466 C 253.324 41.204,251.995 41.992,251.237 42.426 C 250.787 42.684,249.666 43.329,248.746 43.859 C 247.826 44.389,246.553 45.116,245.916 45.476 C 245.280 45.835,244.296 46.405,243.730 46.741 C 243.164 47.078,242.498 47.420,242.251 47.501 C 242.003 47.582,241.801 47.751,241.801 47.876 C 241.801 48.001,241.700 48.103,241.577 48.103 C 241.454 48.103,240.068 48.849,238.498 49.762 C 236.929 50.674,235.148 51.700,234.542 52.041 C 233.936 52.381,232.977 52.921,232.412 53.239 C 231.846 53.557,231.267 53.905,231.125 54.012 C 230.984 54.120,230.289 54.529,229.582 54.921 C 228.875 55.313,227.775 55.923,227.138 56.276 C 226.502 56.629,225.865 57.006,225.723 57.113 C 225.582 57.221,225.061 57.538,224.566 57.819 C 224.071 58.100,222.913 58.763,221.994 59.293 C 221.074 59.823,219.801 60.548,219.164 60.905 C 218.527 61.261,217.717 61.749,217.363 61.990 C 217.010 62.230,216.344 62.589,215.884 62.788 C 215.424 62.986,215.048 63.236,215.048 63.343 C 215.048 63.449,214.930 63.537,214.786 63.537 C 214.642 63.537,214.055 63.833,213.483 64.194 C 212.911 64.555,212.016 65.092,211.494 65.388 C 210.219 66.110,208.348 67.157,207.717 67.501 C 207.434 67.655,207.145 67.839,207.074 67.910 C 207.003 67.981,206.598 68.212,206.174 68.422 C 205.749 68.633,204.800 69.183,204.064 69.644 C 203.328 70.105,202.677 70.482,202.618 70.482 C 202.558 70.482,201.448 71.119,200.151 71.897 C 198.855 72.675,197.729 73.312,197.650 73.312 C 197.572 73.312,197.200 73.527,196.824 73.790 C 196.449 74.052,195.621 74.557,194.984 74.911 C 194.347 75.265,193.421 75.788,192.926 76.074 C 189.744 77.909,188.734 78.457,188.528 78.457 C 188.400 78.457,188.296 78.572,188.296 78.714 C 188.296 78.855,188.178 78.971,188.033 78.971 C 187.889 78.971,187.303 79.267,186.731 79.628 C 185.695 80.282,184.841 80.777,182.637 82.002 C 182.000 82.356,181.172 82.861,180.796 83.124 C 180.421 83.386,180.054 83.601,179.982 83.601 C 179.909 83.601,178.969 84.122,177.892 84.759 C 176.815 85.395,175.821 85.916,175.684 85.916 C 175.547 85.916,175.434 86.032,175.434 86.174 C 175.434 86.315,175.330 86.431,175.204 86.431 C 175.077 86.431,174.210 86.865,173.277 87.395 L 171.580 88.360 171.578 104.359 L 171.576 120.358 173.049 119.583 C 173.859 119.157,174.640 118.716,174.785 118.603 C 174.930 118.489,175.569 118.108,176.206 117.756 C 178.536 116.465,179.427 115.954,179.678 115.763 C 179.820 115.655,180.457 115.277,181.093 114.921 C 182.107 114.356,183.609 113.496,186.367 111.903 C 186.791 111.658,188.045 110.919,189.153 110.262 C 190.261 109.605,191.219 109.068,191.280 109.068 C 191.342 109.068,191.861 108.772,192.433 108.411 C 193.482 107.749,194.400 107.217,196.527 106.039 C 197.164 105.686,197.801 105.309,197.942 105.202 C 198.184 105.018,198.545 104.810,201.415 103.201 C 203.651 101.947,204.379 101.531,205.055 101.121 C 206.611 100.177,208.316 99.184,209.646 98.447 C 210.424 98.015,211.493 97.393,212.021 97.063 C 212.548 96.733,213.038 96.463,213.109 96.463 C 213.180 96.463,213.848 96.077,214.593 95.605 C 215.339 95.133,216.325 94.584,216.785 94.385 C 217.244 94.185,217.621 93.935,217.621 93.828 C 217.621 93.721,217.747 93.633,217.902 93.633 C 218.057 93.633,218.492 93.418,218.867 93.156 C 219.243 92.893,220.071 92.388,220.707 92.034 C 221.344 91.680,222.444 91.068,223.151 90.674 C 223.859 90.281,224.727 89.768,225.080 89.536 C 228.279 87.434,228.027 86.248,228.112 103.798 C 228.203 122.560,228.675 120.220,224.309 122.646 C 223.672 123.000,222.862 123.486,222.508 123.726 C 222.154 123.967,221.489 124.326,221.029 124.524 C 220.569 124.722,220.193 124.972,220.193 125.079 C 220.193 125.186,220.066 125.273,219.911 125.273 C 219.756 125.273,219.322 125.488,218.946 125.751 C 218.571 126.014,217.714 126.535,217.042 126.909 C 216.370 127.282,215.270 127.896,214.598 128.273 C 213.926 128.649,213.145 129.083,212.862 129.237 C 212.579 129.392,212.289 129.576,212.219 129.647 C 212.148 129.718,211.743 129.948,211.318 130.158 C 210.894 130.368,209.764 131.034,208.808 131.637 C 207.851 132.240,207.015 132.733,206.950 132.733 C 206.885 132.733,205.950 133.254,204.874 133.891 C 203.797 134.527,202.856 135.048,202.784 135.048 C 202.711 135.048,202.345 135.263,201.969 135.526 C 201.593 135.789,200.765 136.293,200.129 136.647 C 197.672 138.013,196.904 138.454,196.656 138.643 C 196.514 138.750,195.820 139.159,195.113 139.551 C 194.405 139.944,193.305 140.553,192.669 140.906 C 192.032 141.259,191.395 141.636,191.254 141.743 C 191.006 141.932,190.238 142.373,187.781 143.739 C 187.145 144.093,186.317 144.597,185.941 144.860 C 185.565 145.123,185.199 145.338,185.126 145.338 C 185.054 145.338,184.113 145.859,183.036 146.495 C 181.959 147.132,180.966 147.653,180.829 147.653 C 180.691 147.653,180.579 147.768,180.579 147.910 C 180.579 148.051,180.434 148.176,180.257 148.187 C 180.080 148.199,179.415 148.540,178.778 148.946 C 178.141 149.352,177.215 149.888,176.720 150.136 C 176.225 150.384,175.238 150.940,174.527 151.371 C 173.817 151.802,173.026 152.270,172.771 152.412 C 172.082 152.794,172.238 153.115,173.446 153.799 C 174.044 154.137,175.049 154.703,175.678 155.057 C 176.307 155.411,177.383 156.031,178.069 156.435 C 178.754 156.840,179.366 157.170,179.428 157.170 C 179.489 157.170,180.159 157.566,180.915 158.050 C 182.250 158.904,183.060 159.378,185.466 160.716 C 186.103 161.070,186.931 161.575,187.307 161.837 C 187.682 162.100,188.047 162.315,188.118 162.315 C 188.232 162.315,190.111 163.360,192.283 164.630 C 192.707 164.879,193.749 165.484,194.598 165.975 C 195.447 166.467,196.940 167.337,197.916 167.910 L 199.690 168.952 200.598 168.442 C 201.097 168.162,202.092 167.565,202.810 167.115 C 203.528 166.665,204.463 166.129,204.887 165.923 C 205.312 165.717,205.949 165.359,206.302 165.126 C 206.656 164.894,207.466 164.414,208.103 164.060 C 210.307 162.835,211.161 162.340,212.197 161.686 C 212.769 161.325,213.355 161.029,213.500 161.029 C 213.644 161.029,213.762 160.913,213.762 160.772 C 213.762 160.630,213.874 160.514,214.012 160.514 C 214.149 160.514,215.104 160.017,216.134 159.408 C 217.164 158.800,218.180 158.224,218.392 158.128 C 218.605 158.032,219.241 157.666,219.807 157.315 C 220.373 156.964,221.241 156.475,221.736 156.230 C 222.232 155.984,222.695 155.719,222.765 155.640 C 222.836 155.562,223.183 155.333,223.537 155.130 C 223.891 154.928,224.875 154.364,225.723 153.877 C 226.572 153.390,227.788 152.701,228.424 152.345 C 229.061 151.990,229.698 151.612,229.839 151.504 C 229.981 151.397,230.559 151.049,231.125 150.731 C 231.691 150.413,232.669 149.863,233.298 149.509 C 233.928 149.155,235.003 148.535,235.689 148.131 C 236.375 147.726,236.994 147.395,237.065 147.395 C 237.137 147.395,237.828 146.990,238.603 146.495 C 239.377 146.000,240.123 145.595,240.262 145.595 C 240.401 145.595,240.514 145.479,240.514 145.338 C 240.514 145.196,240.627 145.080,240.764 145.080 C 240.902 145.080,241.895 144.559,242.972 143.923 C 244.049 143.286,244.989 142.765,245.062 142.765 C 245.135 142.765,245.501 142.550,245.877 142.288 C 246.252 142.025,247.080 141.520,247.717 141.166 C 250.174 139.801,250.941 139.360,251.190 139.171 C 251.476 138.953,253.634 137.735,254.726 137.174 C 255.115 136.975,255.494 136.559,255.569 136.251 C 255.833 135.154,255.573 40.303,255.305 40.230 C 255.164 40.192,254.821 40.298,254.544 40.466 M309.839 40.933 C 309.132 41.355,308.350 41.765,308.103 41.844 C 307.855 41.924,307.653 42.063,307.653 42.154 C 307.653 42.244,307.277 42.483,306.817 42.685 C 306.357 42.887,305.198 43.552,304.242 44.163 C 303.285 44.773,302.449 45.273,302.384 45.273 C 302.319 45.273,301.385 45.794,300.308 46.431 C 299.231 47.068,298.290 47.588,298.218 47.588 C 298.145 47.588,297.779 47.803,297.403 48.066 C 297.028 48.329,296.199 48.833,295.563 49.187 C 293.106 50.553,292.338 50.994,292.090 51.183 C 291.949 51.290,291.312 51.667,290.675 52.019 C 288.302 53.334,287.437 53.827,286.559 54.366 C 286.064 54.670,285.312 55.106,284.887 55.336 L 284.116 55.752 284.049 71.413 C 283.974 89.044,283.895 87.976,285.210 87.192 C 287.312 85.940,290.801 83.934,292.476 83.017 C 293.254 82.590,294.040 82.124,294.223 81.980 C 294.406 81.837,295.042 81.467,295.638 81.158 C 296.233 80.849,297.621 80.056,298.721 79.397 C 299.822 78.739,300.788 78.199,300.868 78.199 C 300.948 78.199,301.321 77.984,301.697 77.722 C 302.072 77.459,302.900 76.954,303.537 76.600 C 304.174 76.246,305.273 75.634,305.981 75.240 C 306.688 74.847,307.574 74.310,307.950 74.047 C 308.325 73.784,308.750 73.569,308.893 73.569 C 309.036 73.569,309.192 73.482,309.239 73.376 C 309.286 73.270,309.788 72.929,310.354 72.618 L 311.383 72.053 311.449 56.091 C 311.485 47.312,311.427 40.137,311.320 40.148 C 311.213 40.159,310.547 40.512,309.839 40.933 M310.954 104.899 C 310.872 105.098,309.954 105.647,306.881 107.334 C 306.103 107.761,305.293 108.251,305.080 108.423 C 304.868 108.595,304.318 108.896,303.859 109.093 C 303.399 109.289,303.023 109.538,303.023 109.645 C 303.023 109.752,302.916 109.839,302.787 109.839 C 302.657 109.839,301.669 110.360,300.593 110.997 C 299.516 111.633,298.569 112.154,298.489 112.154 C 298.409 112.154,298.036 112.369,297.660 112.632 C 297.285 112.895,296.457 113.399,295.820 113.753 C 293.363 115.119,292.595 115.560,292.347 115.749 C 292.206 115.856,291.569 116.235,290.932 116.590 C 290.296 116.945,289.023 117.671,288.103 118.203 C 287.183 118.735,285.968 119.414,285.402 119.713 C 284.836 120.013,284.288 120.373,284.184 120.514 C 284.080 120.656,283.993 127.970,283.991 136.767 L 283.987 152.762 283.240 153.295 C 282.550 153.786,281.002 154.697,278.071 156.339 C 277.434 156.695,276.624 157.177,276.270 157.409 C 275.916 157.642,275.280 158.000,274.855 158.206 C 274.431 158.412,273.481 158.958,272.745 159.419 C 272.010 159.880,271.286 160.257,271.138 160.257 C 270.989 160.257,270.868 160.373,270.868 160.514 C 270.868 160.656,270.758 160.772,270.622 160.772 C 270.487 160.772,269.815 161.102,269.130 161.507 C 268.444 161.911,267.368 162.533,266.739 162.890 C 266.110 163.246,264.842 163.971,263.923 164.501 C 263.003 165.031,261.846 165.695,261.350 165.975 C 260.855 166.256,260.334 166.574,260.193 166.681 C 260.051 166.789,259.386 167.181,258.714 167.554 C 255.516 169.327,255.005 169.621,254.405 170.029 C 254.051 170.269,253.386 170.628,252.926 170.826 C 252.466 171.024,252.090 171.274,252.090 171.381 C 252.090 171.488,251.988 171.576,251.863 171.576 C 251.739 171.576,250.046 172.502,248.103 173.633 C 246.159 174.765,244.467 175.691,244.342 175.691 C 244.218 175.691,244.116 175.785,244.116 175.901 C 244.116 176.016,243.711 176.269,243.215 176.463 C 242.720 176.657,242.315 176.910,242.315 177.026 C 242.315 177.141,242.194 177.235,242.046 177.235 C 241.897 177.235,241.143 177.640,240.369 178.135 C 239.594 178.630,238.915 179.035,238.859 179.035 C 238.802 179.035,237.875 179.556,236.798 180.193 C 235.722 180.830,234.788 181.350,234.724 181.350 C 234.660 181.350,233.998 181.737,233.253 182.210 C 232.507 182.682,231.243 183.424,230.444 183.859 C 229.645 184.293,228.690 184.846,228.322 185.087 L 227.653 185.525 227.653 201.316 C 227.653 218.673,227.561 217.740,229.156 216.632 C 229.532 216.371,230.476 215.823,231.254 215.414 C 232.032 215.004,233.271 214.292,234.007 213.830 C 234.743 213.368,235.417 212.990,235.504 212.990 C 235.591 212.990,236.168 212.643,236.785 212.219 C 237.401 211.794,237.963 211.447,238.032 211.447 C 238.100 211.447,239.038 210.926,240.115 210.289 C 241.192 209.653,242.133 209.132,242.206 209.132 C 242.280 209.132,242.942 208.755,243.678 208.293 C 244.414 207.832,245.363 207.283,245.788 207.072 C 246.212 206.861,246.617 206.627,246.688 206.552 C 246.879 206.349,250.047 204.502,250.204 204.502 C 250.278 204.502,250.646 204.287,251.021 204.024 C 251.397 203.761,252.225 203.257,252.862 202.903 C 255.318 201.537,256.086 201.096,256.334 200.907 C 256.476 200.800,257.141 200.407,257.814 200.034 C 261.011 198.262,261.522 197.968,262.122 197.560 C 262.476 197.319,263.141 196.960,263.601 196.762 C 264.061 196.564,264.437 196.314,264.437 196.207 C 264.437 196.100,264.559 196.013,264.707 196.013 C 264.855 196.013,265.610 195.608,266.384 195.113 C 267.158 194.617,267.844 194.212,267.908 194.212 C 267.971 194.212,268.905 193.691,269.982 193.055 C 271.059 192.418,272.046 191.897,272.176 191.897 C 272.305 191.897,272.412 191.810,272.412 191.703 C 272.412 191.596,272.788 191.343,273.248 191.141 C 273.707 190.939,274.686 190.390,275.422 189.920 C 276.158 189.451,276.834 189.068,276.925 189.068 C 277.016 189.068,277.398 188.853,277.774 188.590 C 278.149 188.327,278.977 187.823,279.614 187.469 C 282.071 186.103,282.839 185.662,283.087 185.473 C 283.228 185.366,283.894 184.973,284.566 184.600 C 285.238 184.228,286.338 183.618,287.010 183.245 C 287.682 182.873,288.347 182.480,288.489 182.372 C 288.630 182.265,289.209 181.917,289.775 181.599 C 291.677 180.530,293.115 179.727,293.633 179.444 C 293.916 179.290,294.206 179.106,294.277 179.035 C 294.407 178.905,294.721 178.722,296.829 177.549 C 298.723 176.494,299.433 176.084,301.551 174.824 C 302.651 174.169,303.617 173.633,303.698 173.633 C 303.778 173.633,304.151 173.418,304.526 173.156 C 304.902 172.893,305.730 172.388,306.367 172.035 C 308.573 170.808,309.425 170.314,310.466 169.657 L 311.511 168.997 311.511 136.989 C 311.511 108.528,311.428 103.758,310.954 104.899 " stroke="none" fill="#0081cb" fill-rule="evenodd"></path><path id="path1" d="M87.974 88.329 C 87.974 126.578,88.041 136.583,88.296 136.790 C 88.602 137.039,89.213 137.395,91.833 138.851 C 92.469 139.205,93.298 139.710,93.673 139.972 C 94.049 140.235,94.483 140.450,94.638 140.450 C 94.793 140.450,94.920 140.541,94.920 140.651 C 94.920 140.761,95.238 140.987,95.627 141.152 C 96.016 141.317,96.855 141.764,97.492 142.146 C 98.129 142.527,99.170 143.127,99.807 143.479 C 100.444 143.832,101.080 144.208,101.222 144.316 C 101.363 144.423,101.942 144.771,102.508 145.089 C 104.410 146.158,105.848 146.961,106.367 147.244 C 106.650 147.398,106.939 147.582,107.010 147.653 C 107.080 147.724,107.486 147.951,107.910 148.158 C 108.334 148.365,108.971 148.725,109.325 148.957 C 109.678 149.190,110.518 149.686,111.190 150.060 C 111.862 150.434,112.961 151.047,113.633 151.422 C 114.305 151.797,114.913 152.231,114.984 152.386 C 115.055 152.542,115.170 138.199,115.241 120.514 L 115.370 88.360 116.120 88.414 C 116.533 88.444,116.938 88.561,117.020 88.673 C 117.103 88.785,117.836 89.220,118.650 89.638 C 119.463 90.056,120.129 90.461,120.129 90.538 C 120.129 90.615,120.505 90.842,120.965 91.042 C 121.424 91.242,121.859 91.479,121.929 91.568 C 122.000 91.658,122.463 91.932,122.958 92.179 C 123.453 92.425,124.206 92.836,124.630 93.093 C 125.055 93.350,125.865 93.822,126.431 94.141 C 128.999 95.589,129.781 96.072,129.861 96.261 C 129.908 96.372,130.168 96.463,130.439 96.463 C 130.711 96.463,130.932 96.579,130.932 96.720 C 130.932 96.862,131.059 96.977,131.214 96.977 C 131.369 96.977,131.803 97.192,132.179 97.455 C 132.554 97.718,133.441 98.255,134.148 98.649 C 134.855 99.042,135.955 99.654,136.592 100.008 C 137.228 100.363,138.039 100.843,138.392 101.075 C 138.746 101.307,139.383 101.667,139.807 101.874 C 140.232 102.081,140.637 102.308,140.707 102.379 C 140.778 102.450,141.068 102.634,141.350 102.788 C 141.633 102.943,142.415 103.377,143.087 103.753 C 143.759 104.129,144.859 104.743,145.531 105.117 C 146.203 105.491,147.060 106.012,147.435 106.275 C 147.811 106.537,148.245 106.752,148.400 106.752 C 148.555 106.752,148.682 106.868,148.682 107.010 C 148.682 107.151,148.794 107.267,148.931 107.267 C 149.069 107.267,150.062 107.788,151.139 108.424 C 152.216 109.061,153.137 109.582,153.186 109.582 C 153.397 109.582,156.535 111.522,156.613 111.700 C 156.660 111.808,156.921 111.897,157.192 111.897 C 157.463 111.897,157.685 112.013,157.685 112.154 C 157.685 112.296,157.812 112.412,157.967 112.412 C 158.122 112.412,158.556 112.627,158.931 112.889 C 159.307 113.152,160.164 113.673,160.836 114.047 C 161.508 114.421,162.608 115.033,163.280 115.407 C 163.952 115.780,164.809 116.301,165.184 116.564 C 165.560 116.827,165.984 117.042,166.128 117.042 C 166.271 117.042,166.427 117.129,166.474 117.235 C 166.521 117.341,167.064 117.689,167.680 118.008 C 169.374 118.885,170.404 119.469,170.547 119.633 C 171.586 120.824,171.576 120.979,171.576 104.215 L 171.576 88.318 170.868 87.965 C 170.479 87.770,169.987 87.477,169.775 87.314 C 169.563 87.151,168.752 86.674,167.974 86.254 C 167.196 85.833,166.070 85.181,165.471 84.803 C 164.873 84.425,164.265 84.116,164.121 84.116 C 163.977 84.116,163.859 84.000,163.859 83.859 C 163.859 83.717,163.627 83.601,163.344 83.601 C 163.061 83.601,162.830 83.486,162.830 83.344 C 162.830 83.203,162.703 83.087,162.548 83.087 C 162.393 83.087,161.959 82.871,161.583 82.607 C 161.208 82.343,160.090 81.687,159.100 81.150 C 158.109 80.613,156.720 79.809,156.013 79.363 C 155.305 78.917,154.350 78.386,153.891 78.184 C 153.431 77.982,153.055 77.729,153.055 77.622 C 153.055 77.515,152.933 77.428,152.785 77.428 C 152.637 77.428,151.882 77.023,151.108 76.527 C 150.334 76.032,149.648 75.627,149.584 75.627 C 149.520 75.627,148.587 75.106,147.510 74.469 C 146.433 73.833,145.446 73.312,145.316 73.312 C 145.187 73.312,145.080 73.196,145.080 73.055 C 145.080 72.913,144.976 72.797,144.848 72.797 C 144.643 72.797,143.961 72.429,140.531 70.465 C 140.081 70.207,139.244 69.700,138.671 69.339 C 138.099 68.977,137.513 68.682,137.368 68.682 C 137.224 68.682,137.106 68.588,137.106 68.472 C 137.106 68.357,136.701 68.104,136.206 67.910 C 135.711 67.716,135.305 67.476,135.305 67.377 C 135.305 67.279,135.103 67.133,134.855 67.054 C 134.608 66.974,133.826 66.572,133.119 66.160 C 132.412 65.748,131.254 65.089,130.547 64.694 C 129.839 64.300,128.953 63.763,128.578 63.500 C 128.202 63.237,127.768 63.023,127.613 63.023 C 127.458 63.023,127.331 62.907,127.331 62.765 C 127.331 62.624,127.100 62.508,126.817 62.508 C 126.534 62.508,126.302 62.392,126.302 62.251 C 126.302 62.109,126.181 61.994,126.033 61.994 C 125.884 61.994,125.130 61.588,124.356 61.093 C 123.582 60.598,122.896 60.193,122.832 60.193 C 122.768 60.193,121.835 59.672,120.758 59.035 C 119.681 58.399,118.703 57.878,118.585 57.878 C 118.467 57.878,118.332 57.791,118.285 57.685 C 118.238 57.579,117.563 57.154,116.785 56.740 C 116.006 56.327,115.312 55.922,115.241 55.840 C 115.170 55.758,114.765 55.521,114.341 55.314 C 113.916 55.107,113.280 54.748,112.926 54.515 C 112.572 54.283,111.704 53.771,110.997 53.377 C 110.289 52.983,109.190 52.372,108.553 52.017 C 107.916 51.663,107.088 51.158,106.713 50.896 C 106.337 50.633,105.903 50.418,105.748 50.418 C 105.593 50.418,105.466 50.331,105.466 50.224 C 105.466 50.117,105.090 49.866,104.630 49.667 C 104.170 49.467,103.184 48.918,102.439 48.446 C 101.693 47.975,101.034 47.588,100.973 47.588 C 100.729 47.588,97.614 45.684,97.535 45.486 C 97.488 45.369,97.227 45.273,96.956 45.273 C 96.685 45.273,96.463 45.158,96.463 45.016 C 96.463 44.875,96.336 44.759,96.181 44.759 C 96.026 44.759,95.592 44.544,95.217 44.281 C 94.841 44.018,94.013 43.514,93.376 43.159 C 92.740 42.805,91.640 42.193,90.932 41.800 C 90.225 41.406,89.339 40.869,88.964 40.606 C 88.588 40.344,88.212 40.129,88.127 40.129 C 88.043 40.129,87.974 61.819,87.974 88.329 M172.090 169.106 L 172.090 185.174 172.797 185.651 C 173.186 185.913,173.852 186.296,174.277 186.502 C 174.701 186.708,175.650 187.253,176.386 187.715 C 177.122 188.176,177.846 188.553,177.994 188.553 C 178.142 188.553,178.264 188.641,178.264 188.747 C 178.264 188.854,178.640 189.104,179.100 189.302 C 179.559 189.501,180.225 189.860,180.579 190.100 C 180.932 190.341,181.743 190.827,182.379 191.181 C 184.836 192.547,185.604 192.988,185.852 193.176 C 185.994 193.284,186.659 193.677,187.331 194.049 C 190.564 195.842,191.043 196.119,191.680 196.564 C 192.055 196.827,192.434 197.042,192.521 197.042 C 192.608 197.042,193.147 197.337,193.720 197.699 C 194.756 198.353,195.609 198.848,197.814 200.073 C 198.450 200.427,199.260 200.913,199.614 201.154 C 199.968 201.394,200.633 201.753,201.093 201.952 C 201.553 202.150,201.929 202.400,201.929 202.507 C 201.929 202.613,202.035 202.701,202.165 202.701 C 202.295 202.701,203.282 203.222,204.359 203.859 C 205.436 204.495,206.377 205.016,206.451 205.016 C 206.524 205.016,207.218 205.421,207.992 205.916 C 208.766 206.412,209.513 206.817,209.651 206.817 C 209.790 206.817,209.904 206.904,209.904 207.011 C 209.904 207.118,210.280 207.368,210.740 207.566 C 211.199 207.764,211.865 208.123,212.219 208.364 C 212.572 208.604,213.412 209.107,214.084 209.481 C 217.342 211.294,217.758 211.536,217.878 211.692 C 217.949 211.784,218.412 212.057,218.907 212.299 C 219.402 212.541,220.270 213.021,220.836 213.366 C 221.402 213.711,222.154 214.154,222.508 214.350 C 224.950 215.708,225.806 216.208,226.406 216.628 C 226.782 216.891,227.216 217.106,227.371 217.106 C 227.572 217.106,227.653 212.591,227.653 201.320 L 227.653 185.535 226.629 184.857 C 226.066 184.485,225.497 184.180,225.365 184.180 C 225.232 184.180,225.085 184.093,225.038 183.987 C 224.990 183.881,224.447 183.533,223.831 183.214 C 222.261 182.400,221.116 181.759,220.965 181.608 C 220.829 181.472,220.344 181.191,218.413 180.129 C 217.765 179.773,217.119 179.392,216.977 179.283 C 216.836 179.174,216.026 178.710,215.177 178.252 C 214.328 177.794,213.460 177.286,213.248 177.123 C 213.035 176.960,212.514 176.658,212.090 176.452 C 211.666 176.246,211.260 176.020,211.190 175.949 C 211.119 175.878,210.830 175.694,210.547 175.540 C 209.915 175.195,208.044 174.149,206.769 173.426 C 206.248 173.131,205.353 172.594,204.781 172.232 C 204.208 171.871,203.622 171.576,203.478 171.576 C 203.333 171.576,203.215 171.487,203.215 171.379 C 203.215 171.271,202.761 170.986,202.206 170.745 C 201.651 170.505,200.811 169.977,200.341 169.572 C 199.870 169.167,198.328 168.163,196.913 167.340 C 195.498 166.516,193.909 165.570,193.382 165.237 C 192.854 164.903,192.351 164.630,192.264 164.630 C 192.177 164.630,191.798 164.417,191.422 164.156 C 191.047 163.896,190.103 163.350,189.325 162.945 C 188.547 162.539,187.621 162.017,187.267 161.784 C 186.913 161.550,186.103 161.070,185.466 160.716 C 183.060 159.378,182.250 158.904,180.915 158.050 C 180.159 157.566,179.489 157.170,179.428 157.170 C 179.366 157.170,178.754 156.840,178.069 156.435 C 177.383 156.031,176.278 155.394,175.613 155.021 C 174.949 154.647,173.884 154.048,173.248 153.689 L 172.090 153.038 172.090 169.106 " stroke="none" fill="#00b0ff" fill-rule="evenodd"></path></g></svg>