<?xml version="1.0" encoding="UTF-8" standalone="no"?>
<!DOCTYPE svg PUBLIC "-//W3C//DTD SVG 1.1//EN" "http://www.w3.org/Graphics/SVG/1.1/DTD/svg11.dtd">
<svg xmlns="http://www.w3.org/2000/svg" xmlns:xlink="http://www.w3.org/1999/xlink" version="1.1" width="612pt" height="792pt" viewBox="0 0 612 792">
<g enable-background="new">
<clipPath id="cp80">
<path d="M 0 0 L 612 0 L 612 792 L 0 792 Z " fill-rule="evenodd"/>
</clipPath>
<g clip-path="url(#cp80)">
<path transform="matrix(.75,0,0,.75,0,-792)" d="M 0 1056 L 816 1056 L 816 2112 L 0 2112 Z " fill="#ffffff"/>
<path transform="matrix(.75,0,0,.75,0,-792)" d="M 0 1056 L 816 1056 L 816 2112 L 0 2112 Z " fill="#ffffff"/>
<path transform="matrix(.75,0,0,.75,0,-792)" d="M 0 0 L 816 0 L 816 2112 L 0 2112 Z " fill="#ffffff"/>
</g>
<clipPath id="cp81">
<path d="M 0 0 L 612 0 L 612 791.25 L 0 791.25 Z " fill-rule="evenodd"/>
</clipPath>
<g clip-path="url(#cp81)">
<path transform="matrix(.75,0,0,.75,0,-792)" d="M 0 1056 L 816 1056 L 816 2111 L 0 2111 Z " fill="#ffffff"/>
</g>
<clipPath id="cp82">
<path d="M 0 0 L 612 0 L 612 791.25 L 0 791.25 Z " fill-rule="evenodd"/>
</clipPath>
<g clip-path="url(#cp82)">
<text fill="#555555" xml:space="preserve" transform="matrix(.75 0 0 .75 0 -792)" font-size="21.33" font-family="Arial" font-weight="bold"><tspan y="1135" x="96 111.4025 123.26419 136.29227 144.59233 156.45403 162.37967 176.60536 182.531 188.45665 206.22315 218.08484 229.94654 245.34903 252.45146 264.31318">Henry P. MacAfee</tspan></text>
</g>
<clipPath id="cp83">
<path d="M 0 0 L 612 0 L 612 791.25 L 0 791.25 Z " fill-rule="evenodd"/>
</clipPath>
<g clip-path="url(#cp83)">
<text fill="#555555" xml:space="preserve" transform="matrix(.75 0 0 .75 0 -792)" font-size="13.33" font-family="Arial" font-weight="bold"><tspan y="1135" x="276.17189"> </tspan></text>
</g>
<clipPath id="cp84">
<path d="M 0 0 L 612 0 L 612 791.25 L 0 791.25 Z " fill-rule="evenodd"/>
</clipPath>
<g clip-path="url(#cp84)">
<text fill="#555555" xml:space="preserve" transform="matrix(.75 0 0 .75 0 -792)" font-size="13.33" font-family="Arial" font-weight="bold"><tspan y="1164" x="96"> </tspan></text>
</g>
<clipPath id="cp85">
<path d="M 0 0 L 612 0 L 612 791.25 L 0 791.25 Z " fill-rule="evenodd"/>
</clipPath>
<g clip-path="url(#cp85)">
<text xml:space="preserve" transform="matrix(.75 0 0 .75 0 -792)" font-size="14.66" font-family="CenturyStd"><tspan y="1180" x="96">&#x00a0;</tspan></text>
</g>
<clipPath id="cp86">
<path d="M 0 0 L 612 0 L 612 791.25 L 0 791.25 Z " fill-rule="evenodd"/>
</clipPath>
<g clip-path="url(#cp86)">
<path transform="matrix(.75,0,0,.75,0,-792)" d="M 0 1185 L 816 1185 L 816 2112 L 0 2112 Z " fill="#ffffff"/>
</g>
<clipPath id="cp87">
<path d="M 0 0 L 612 0 L 612 791.25 L 0 791.25 Z " fill-rule="evenodd"/>
</clipPath>
<g clip-path="url(#cp87)">
<text xml:space="preserve" transform="matrix(.75 0 0 .75 0 -792)" font-size="14.66" font-family="Calibri"><tspan y="1198" x="144 148.47274 153.58238 156.94588 164.23822 171.93848 179.63874 182.95214 189.85088 194.96053 202.6894 210.38967 218.08992 221.40332 229.10358 234.83583 238.19933 245.89958 252.79833">friend group using </tspan></text>
<text xml:space="preserve" transform="matrix(.75 0 0 .75 0 -792)" font-size="14.66" font-family="Gautami"><tspan y="1198" x="256.11174">&#x200b;</tspan></text>
<text xml:space="preserve" transform="matrix(.75 0 0 .75 0 -792)" font-size="14.66" font-family="Calibri" font-style="italic"><tspan y="1198" x="256.11174 259.8044 267.3401 273.87385 277.23735 282.94099 286.30445 293.8258 301.36146 304.67488 312.2463 319.76765 330.24458 337.24354 342.26728 345.5807 353.5529 361.07423 368.6099 373.63368">Invision Power Board</tspan></text>
<text xml:space="preserve" transform="matrix(.75 0 -.1875 .75 0 -792)" font-size="14.66" font-family="Gautami"><tspan y="1198" x="680.6693">&#x200b;</tspan></text>
<text xml:space="preserve" transform="matrix(.75 0 0 .75 0 -792)" font-size="14.66" font-family="Calibri"><tspan y="1198" x="381.1693 384.82624 388.13963 391.8323 399.40376 407.37596 410.68934 417.83143 425.53169 432.824 444.53184 451.82417 457.55644 461.21333 464.52674 471.54713 479.24739 486.94764 490.26106 496.45848 504.15873 509.891 514.80026 522.5291 534.23696">, IPB Themes, and custom </tspan></text>
<text xml:space="preserve" transform="matrix(.75 0 0 .75 0 -792)" font-size="14.66" font-family="Gautami"><tspan y="1198" x="537.55038">&#x200b;</tspan></text>
<text xml:space="preserve" transform="matrix(.75 0 0 .75 0 -792)" font-size="14.66" font-family="Calibri" font-style="italic"><tspan y="1198" x="537.55038 545.20767 551.8345 558.4613">CSS </tspan></text>
<text xml:space="preserve" transform="matrix(.75 0 -.1875 .75 0 -792)" font-size="14.66" font-family="Gautami"><tspan y="1198" x="861.27468">&#x200b;</tspan></text>
<text xml:space="preserve" transform="matrix(.75 0 0 .75 0 -792)" font-size="14.66" font-family="Calibri"><tspan y="1198" x="561.77468 566.2474 573.97628 579.08596 582.3993 588.1316 593.04086 599.6748 603.0383 606.4018 614.10208 621.0008 624.7006 628.01406 631.7067 635.02017 642.0405 645.40408 651.1363 658.8652 662.1786 673.88638 680.9068 688.60708 695.62747 702.5262 709.81857">for styling. I also managed</tspan></text>
</g>
<clipPath id="cp88">
<path d="M 0 0 L 612 0 L 612 791.25 L 0 791.25 Z " fill-rule="evenodd"/>
</clipPath>
<g clip-path="url(#cp88)">
<text xml:space="preserve" transform="matrix(.75 0 0 .75 0 -792)" font-size="14.66" font-family="Calibri"><tspan y="1198" x="717.5156"> </tspan></text>
</g>
<clipPath id="cp89">
<path d="M 0 0 L 612 0 L 612 791.25 L 0 791.25 Z " fill-rule="evenodd"/>
</clipPath>
<g clip-path="url(#cp89)">
<text xml:space="preserve" transform="matrix(.75 0 0 .75 0 -792)" font-size="14.66" font-family="Calibri"><tspan y="1221" x="144 151.0204 154.3338 159.24308 166.53542 173.55582 185.26364 188.57704 193.48632 201.2152 204.5286 211.549 217.28125 223.0135 226.377 232.10926 237.01853 240.33193 243.69542 251.39568 254.70908 266.4169 274.14579 281.84605 289.13838 294.24806 301.26844 306.1777 309.5412 317.24147 324.1402 327.4536 335.1825 342.88276 347.99238 351.3058 358.7341 366.1624 373.59074 380.89024 384.2036 395.91145 403.2038 414.91163 422.61189 429.90425 435.0139 440.74617 444.05958 451.07997 458.7802 466.48048 469.79389 474.70317 482.4034 489.69575 493.05924 498.16889 501.4823 509.18257 516.91146 522.6437 527.553 533.2852">a team to assist in moderating our 200+ members and their posts.</tspan></text>
</g>
<clipPath id="cp90">
<path d="M 0 0 L 612 0 L 612 791.25 L 0 791.25 Z " fill-rule="evenodd"/>
</clipPath>
<g clip-path="url(#cp90)">
<text xml:space="preserve" transform="matrix(.75 0 0 .75 0 -792)" font-size="14.66" font-family="Calibri" font-weight="bold"><tspan y="1221" x="536.9844"> </tspan></text>
</g>
<clipPath id="cp91">
<path d="M 0 0 L 612 0 L 612 791.25 L 0 791.25 Z " fill-rule="evenodd"/>
</clipPath>
<g clip-path="url(#cp91)">
<text fill="#4f4e51" xml:space="preserve" transform="matrix(.75 0 0 .75 0 -792)" font-size="14.66" font-family="Calibri" font-weight="bold"><tspan y="1244" x="120">&#x2022;</tspan></text>
</g>
<clipPath id="cp92">
<path d="M 0 0 L 612 0 L 612 791.25 L 0 791.25 Z " fill-rule="evenodd"/>
</clipPath>
<g clip-path="url(#cp92)">
<text xml:space="preserve" transform="matrix(.75 0 0 .75 0 -792)" font-size="14.66" font-family="Calibri" font-weight="bold"><tspan y="1244" x="144 153.33907 158.5489 165.784 173.64885 181.5137 185.11336 191.24637 194.55977 203.79865 211.17687 217.02362 220.62328 227.57212 235.43697 239.48032">Graphic Design: </tspan></text>
<path transform="matrix(.75,0,0,.75,0,-792)" d="M 0 0 L 0 0 L 0 0 L 0 0 Z "/>
<text fill-opacity="0" xml:space="preserve" transform="matrix(.75 0 0 .75 0 -792)" font-size="14.66" font-family="Gautami"><tspan y="1244" x="242.79372">&#x200b;</tspan></text>
<text xml:space="preserve" transform="matrix(.75 0 0 .75 0 -792)" font-size="14.66" font-family="Calibri" font-style="italic"><tspan y="1244" x="242.79372 251.27402 258.8097 266.33103 273.8667 280.8656 284.17903 287.8717 291.2352 294.5987 302.13435 307.83799 312.74726 317.77104 325.3067 330.21595 337.7373 342.76109 348.44325 356.01469 363.55036 371.0717 375.98097 383.50233 389.20594 396.74159 404.26295 411.79859 417.48078 425.13807 430.16188 437.16078 444.69645 449.6057 452.9692 459.503 466.5019 469.8153 477.47264 480.83613 488.35749 495.89314">Adobe Illustrator/Photoshop/Creative Cloud</tspan></text>
<text xml:space="preserve" transform="matrix(.75 0 -.1875 .75 0 -792)" font-size="14.66" font-family="Gautami"><tspan y="1244" x="814.4288">&#x200b;</tspan></text>
<text xml:space="preserve" transform="matrix(.75 0 0 .75 0 -792)" font-size="14.66" font-family="Calibri"><tspan y="1244" x="503.42878 507.35047 510.66389 514.35659 517.6699 525.37026 532.66256 538.3948 541.7583 548.65707 556.3573 563.64968 571.3499 574.6633 582.3635 590.0924 595.8247 600.73397 608.0263 613.136 618.8682 622.18167 629.202 636.9023 644.60256 647.9159 655.6162 662.6366 674.3444 682.0447 689.74496 693.1084 700.40078 705.31008">: I designed posters and pamphlets</tspan></text>
</g>
<clipPath id="cp93">
<path d="M 0 0 L 612 0 L 612 791.25 L 0 791.25 Z " fill-rule="evenodd"/>
</clipPath>
<g clip-path="url(#cp93)">
<text xml:space="preserve" transform="matrix(.75 0 0 .75 0 -792)" font-size="14.66" font-family="Calibri"><tspan y="1244" x="711.03128"> </tspan></text>
</g>
<clipPath id="cp94">
<path d="M 0 0 L 612 0 L 612 791.25 L 0 791.25 Z " fill-rule="evenodd"/>
</clipPath>
<g clip-path="url(#cp94)">
<text xml:space="preserve" transform="matrix(.75 0 0 .75 0 -792)" font-size="14.66" font-family="Calibri"><tspan y="1267" x="144 148.47274 156.20162 161.31127 164.62467 170.82209 178.55097 186.25122 192.44864 199.74098 204.85063 209.7599 215.49216 219.14907 222.46247 229.0821 236.37445 244.0747 251.77497 259.06733 264.79957 268.45649 271.76988 278.79029 286.49055 294.1908 297.50419 305.23307 310.14234 317.8426 325.13496 330.24458 333.55799 340.85035 347.46998 354.76234 362.4626 367.37184 373.1041">for concerts, venues, and other events.</tspan></text>
</g>
<clipPath id="cp95">
<path d="M 0 0 L 612 0 L 612 791.25 L 0 791.25 Z " fill-rule="evenodd"/>
</clipPath>
<g clip-path="url(#cp95)">
<text xml:space="preserve" transform="matrix(.75 0 0 .75 0 -792)" font-size="14.66" font-family="Calibri" font-weight="bold"><tspan y="1267" x="376.79689"> </tspan></text>
</g>
<clipPath id="cp96">
<path d="M 0 0 L 612 0 L 612 791.25 L 0 791.25 Z " fill-rule="evenodd"/>
</clipPath>
<g clip-path="url(#cp96)">
<text xml:space="preserve" transform="matrix(.75 0 0 .75 0 -792)" font-size="14.66" font-family="CenturyStd"><tspan y="1288" x="96">&#x00a0;</tspan></text>
</g>
<clipPath id="cp97">
<path d="M 0 0 L 612 0 L 612 791.25 L 0 791.25 Z " fill-rule="evenodd"/>
</clipPath>
<g clip-path="url(#cp97)">
<text xml:space="preserve" transform="matrix(.75 0 0 .75 0 -792)" font-size="17.33" font-family="Arial" font-weight="bold"><tspan y="1309" x="96 106.58472 116.2218 125.85889 136.4436 147.02832 157.61304 162.42736 173.01207 183.59679 188.4111 198.04819">Technologies</tspan></text>
</g>
<clipPath id="cp98">
<path d="M 0 0 L 612 0 L 612 791.25 L 0 791.25 Z " fill-rule="evenodd"/>
</clipPath>
<g clip-path="url(#cp98)">
<text xml:space="preserve" transform="matrix(.75 0 0 .75 0 -792)" font-size="17.33" font-family="Arial" font-weight="bold"><tspan y="1309" x="207.67188"> </tspan></text>
</g>
<clipPath id="cp99">
<path d="M 0 0 L 612 0 L 612 791.25 L 0 791.25 Z " fill-rule="evenodd"/>
</clipPath>
<g clip-path="url(#cp99)">
<text xml:space="preserve" transform="matrix(.75 0 0 .75 0 -792)" font-size="14.66" font-family="Calibri"><tspan y="1327" x="96 103.957889 111.25023 118.27063 124.46805 129.37732 133.03423 136.34763 144.30551 151.59786 158.61826 164.81568 169.72495 173.03835 182.49907 189.51947 194.42874 197.79224 204.41188 211.70423 215.36113 218.67453 223.34764 230.36804 236.98769 244.00809 250.74224 256.93965 262.04933 265.41279 273.11305 278.02235 281.33573 285.77986 292.93623 299.67036 307.09867 312.75935 319.9157 326.64988 334.0782 338.52229 342.1792 345.4926 354.62416 361.7662 374.297 380.45863 384.11555 387.42897 395.2437 401.97785 408.71199 412.3689 415.6823 424.92835 431.94874 436.858 442.59028 450.29054 456.9245 460.58143 463.89485 470.62898 473.99247 479.1021 486.39448 494.09474 501.1151 506.84736 514.1397 517.79666 521.11007 530.5708 538.2997 545.9999 553.29226 557.96536 564.69949 568.3564 571.6698 578.8262 585.1739 592.87417 597.98379 605.2761 611.00839 616.7406 620.3975 623.71096 632.72799 640.45687 646.6543 653.3169 660.60928 665.7189 669.3758 672.6892 682.1499 689.44229 697.17117 704.5995 708.1061">React, React Native, JavaScript (ES6/ES7), HTML, CSS, Gatsby, Firebase, NodeJS, Express, Docker, Neo4j,</tspan></text>
</g>
<clipPath id="cp100">
<path d="M 0 0 L 612 0 L 612 791.25 L 0 791.25 Z " fill-rule="evenodd"/>
</clipPath>
<g clip-path="url(#cp100)">
<text xml:space="preserve" transform="matrix(.75 0 0 .75 0 -792)" font-size="14.66" font-family="Calibri"><tspan y="1327" x="711.75"> </tspan></text>
</g>
<clipPath id="cp101">
<path d="M 0 0 L 612 0 L 612 791.25 L 0 791.25 Z " fill-rule="evenodd"/>
</clipPath>
<g clip-path="url(#cp101)">
<text xml:space="preserve" transform="matrix(.75 0 0 .75 0 -792)" font-size="14.66" font-family="Calibri"><tspan y="1345" x="96 105.24603 108.60953 113.5188 122.65033 130.35059 138.05084 141.70775 145.02115 154.26718 157.63068 162.53995 166.19686 169.51026 178.97098 186.54242 199.07323 202.73014 206.04354 213.1856 220.206 225.31565 233.0159 236.6728 239.9862 246.72035 256.58186 262.74348 266.4004 269.71379 279.1745 286.46687 291.3761 294.73963 298.1031 302.57585 309.20979 312.8667 316.1801 324.6604 332.36067 340.08955 347.7898 355.08216 358.39558 366.21034 369.57383 377.3027 385.00297">GitHub, Git, NPM, Yarn, SQL, Netlify, Adobe Cloud</tspan></text>
</g>
<clipPath id="cp102">
<path d="M 0 0 L 612 0 L 612 791.25 L 0 791.25 Z " fill-rule="evenodd"/>
</clipPath>
<g clip-path="url(#cp102)">
<text xml:space="preserve" transform="matrix(.75 0 0 .75 0 -792)" font-size="14.66" font-family="Calibri"><tspan y="1345" x="392.70314"> </tspan></text>
</g>
<clipPath id="cp103">
<path d="M 0 0 L 612 0 L 612 791.25 L 0 791.25 Z " fill-rule="evenodd"/>
</clipPath>
<g clip-path="url(#cp103)">
<text xml:space="preserve" transform="matrix(.75 0 0 .75 0 -792)" font-size="14.66" font-family="Calibri"><tspan y="1363" x="96"> </tspan></text>
</g>
<clipPath id="cp104">
<path d="M 0 0 L 612 0 L 612 791.25 L 0 791.25 Z " fill-rule="evenodd"/>
</clipPath>
<g clip-path="url(#cp104)">
<text xml:space="preserve" transform="matrix(.75 0 0 .75 0 -792)" font-size="14.66" font-family="Calibri"><tspan y="1381" x="96 103.15637 109.504077 117.20433 124.93321 130.66547 138.36573 143.47537 150.76772 154.08112 158.99039 166.71927">Exposure to:</tspan></text>
<text xml:space="preserve" transform="matrix(.75 0 0 .75 0 -792)" font-size="14.66" font-family="Gautami"><tspan y="1381" x="170.64096">&#x200b;</tspan></text>
<text xml:space="preserve" transform="matrix(.75 0 0 .75 0 -792)" font-size="14.66" font-family="Calibri" font-weight="bold"><tspan y="1381" x="170.64096"> </tspan></text>
<path transform="matrix(.75,0,0,.75,0,-792)" d="M 0 0 L 0 0 L 0 0 L 0 0 Z "/>
<text fill-opacity="0" xml:space="preserve" transform="matrix(.75 0 0 .75 0 -792)" font-size="14.66" font-family="Gautami"><tspan y="1381" x="173.95436">&#x200b;</tspan></text>
<text xml:space="preserve" transform="matrix(.75 0 0 .75 0 -792)" font-size="14.66" font-family="Calibri"><tspan y="1381" x="173.95436 181.5258 188.15976 193.06903 200.76929 208.49817 216.19843 219.85533 223.16873 235.69954 243.42842 251.12868 258.0274 265.7563 274.77333 282.74555 286.40245 289.71583 298.19615 305.8964 312.79515 320.4954 323.8589 330.87928 335.98896 339.64585 342.95924 352.20527 357.31495 364.33534 372.03559 379.73585 389.59733 395.75898 399.41587 402.72926 410.544 414.2367 419.8974 427.71217">Python, MongoDB, Angular, GraphQL, CI/CD</tspan></text>
</g>
<clipPath id="cp105">
<path d="M 0 0 L 612 0 L 612 791.25 L 0 791.25 Z " fill-rule="evenodd"/>
</clipPath>
<g clip-path="url(#cp105)">
<text xml:space="preserve" transform="matrix(.75 0 0 .75 0 -792)" font-size="14.66" font-family="Calibri"><tspan y="1381" x="436.71876"> </tspan></text>
</g>
<clipPath id="cp106">
<path d="M 0 0 L 612 0 L 612 791.25 L 0 791.25 Z " fill-rule="evenodd"/>
</clipPath>
<g clip-path="url(#cp106)">
<text xml:space="preserve" transform="matrix(.75 0 0 .75 0 -792)" font-size="17.33" font-family="Arial" font-weight="bold"><tspan y="1401" x="96"> </tspan></text>
</g>
<clipPath id="cp107">
<path d="M 0 0 L 612 0 L 612 791.25 L 0 791.25 Z " fill-rule="evenodd"/>
</clipPath>
<g clip-path="url(#cp107)">
<text xml:space="preserve" transform="matrix(.75 0 0 .75 0 -792)" font-size="17.33" font-family="Arial" font-weight="bold"><tspan y="1421" x="96 107.557727 118.14244 128.72716 138.36425 148.00133 153.77173 158.58605 169.17076">Education</tspan></text>
</g>
<clipPath id="cp108">
<path d="M 0 0 L 612 0 L 612 791.25 L 0 791.25 Z " fill-rule="evenodd"/>
</clipPath>
<g clip-path="url(#cp108)">
<text xml:space="preserve" transform="matrix(.75 0 0 .75 0 -792)" font-size="17.33" font-family="ArialMT"><tspan y="1421" x="179.75"> </tspan></text>
</g>
<clipPath id="cp109">
<path d="M 0 0 L 612 0 L 612 791.25 L 0 791.25 Z " fill-rule="evenodd"/>
</clipPath>
<g clip-path="url(#cp109)">
<text xml:space="preserve" transform="matrix(.75 0 0 .75 0 -792)" font-size="14.66" font-family="Calibri"><tspan y="1438" x="96"> </tspan></text>
</g>
<clipPath id="cp110">
<path d="M 0 0 L 612 0 L 612 791.25 L 0 791.25 Z " fill-rule="evenodd"/>
</clipPath>
<g clip-path="url(#cp110)">
<text xml:space="preserve" transform="matrix(.75 0 0 .75 0 -792)" font-size="14.66" font-family="Calibri"><tspan y="1456" x="96 103.428318 110.85663 118.28494 125.71326 129.02666 133.5137 136.8271 144.25542 151.68373 159.11205">2011 - 2013</tspan></text>
</g>
<clipPath id="cp111">
<path d="M 0 0 L 612 0 L 612 791.25 L 0 791.25 Z " fill-rule="evenodd"/>
</clipPath>
<g clip-path="url(#cp111)">
<text xml:space="preserve" transform="matrix(.75 0 0 .75 0 -792)" font-size="14.66" font-family="Calibri"><tspan y="1456" x="192 200.4803 208.18056 213.91281 218.82209 222.18558 229.88584 233.19924 240.77068 248.06302 255.08342 261.71739 265.03077 271.76493 276.6742 283.69459 288.60389 295.8962 299.2096 308.6131 316.31336 319.67683 326.29649 333.5888 338.6985 344.43074 347.79423 352.7035">Austin Peay State University</tspan></text>
</g>
<clipPath id="cp112">
<path d="M 0 0 L 612 0 L 612 791.25 L 0 791.25 Z " fill-rule="evenodd"/>
</clipPath>
<g clip-path="url(#cp112)">
<text xml:space="preserve" transform="matrix(.75 0 0 .75 0 -792)" font-size="14.66" font-family="Calibri"><tspan y="1456" x="359.32814"> </tspan></text>
</g>
<clipPath id="cp113">
<path d="M 0 0 L 612 0 L 612 791.25 L 0 791.25 Z " fill-rule="evenodd"/>
</clipPath>
<g clip-path="url(#cp113)">
<text xml:space="preserve" transform="matrix(.75 0 0 .75 0 -792)" font-size="14.66" font-family="Calibri"><tspan y="1474" x="96 108.53081 115.55121 121.28346 126.19273 133.48508 138.59473 142.25164 147.98389 151.29729 154.66078 162.36104 165.67444 173.99015 177.35364 185.08252 188.44602 191.80951 199.50977 202.82317 210.3946 217.68695 222.7966 227.26934 234.99822 240.10787 251.81569 258.8361 266.53636 272.73377">Master&#x2019;s in Violin Performance</tspan></text>
</g>
<clipPath id="cp114">
<path d="M 0 0 L 612 0 L 612 791.25 L 0 791.25 Z " fill-rule="evenodd"/>
</clipPath>
<g clip-path="url(#cp114)">
<text xml:space="preserve" transform="matrix(.75 0 0 .75 0 -792)" font-size="14.66" font-family="Calibri"><tspan y="1474" x="280.01564"> </tspan></text>
</g>
<clipPath id="cp115">
<path d="M 0 0 L 612 0 L 612 791.25 L 0 791.25 Z " fill-rule="evenodd"/>
</clipPath>
<g clip-path="url(#cp115)">
<text xml:space="preserve" transform="matrix(.75 0 0 .75 0 -792)" font-size="14.66" font-family="Calibri"><tspan y="1492" x="96"> </tspan></text>
</g>
<clipPath id="cp116">
<path d="M 0 0 L 612 0 L 612 791.25 L 0 791.25 Z " fill-rule="evenodd"/>
</clipPath>
<g clip-path="url(#cp116)">
<text xml:space="preserve" transform="matrix(.75 0 0 .75 0 -792)" font-size="14.66" font-family="Calibri"><tspan y="1510" x="96 103.428318 110.85663 118.28494 125.71326 129.02666 133.5137 136.8271 144.25542 151.68373 159.11205">2006 - 2011</tspan></text>
</g>
<clipPath id="cp117">
<path d="M 0 0 L 612 0 L 612 791.25 L 0 791.25 Z " fill-rule="evenodd"/>
</clipPath>
<g clip-path="url(#cp117)">
<text xml:space="preserve" transform="matrix(.75 0 0 .75 0 -792)" font-size="14.66" font-family="Calibri"><tspan y="1510" x="192 199.14206 206.4344 214.13466 221.83492 229.12726 234.85951 240.59177 247.88411 255.17646 258.48988 265.6319 272.92427 279.12168">Tennessee Tech</tspan></text>
</g>
<clipPath id="cp118">
<path d="M 0 0 L 612 0 L 612 791.25 L 0 791.25 Z " fill-rule="evenodd"/>
</clipPath>
<g clip-path="url(#cp118)">
<text xml:space="preserve" transform="matrix(.75 0 0 .75 0 -792)" font-size="14.66" font-family="Calibri"><tspan y="1510" x="286.8125"> </tspan></text>
</g>
<clipPath id="cp119">
<path d="M 0 0 L 612 0 L 612 791.25 L 0 791.25 Z " fill-rule="evenodd"/>
</clipPath>
<g clip-path="url(#cp119)">
<text xml:space="preserve" transform="matrix(.75 0 0 .75 0 -792)" font-size="14.66" font-family="Calibri"><tspan y="1528" x="96 103.9722 110.9926 117.19002 124.890277 132.18262 135.54611 143.275 148.38465 152.04155 157.7738 161.0872 164.4507 172.15096 175.46436 187.99517 195.69542 201.42768 204.79117 210.98859 214.30199 222.11675 229.84563 241.55345 249.25371 256.9826 262.71485 266.07835 270.9876 274.3511 282.08">Bachelor&#x2019;s in Music Composition</tspan></text>
</g>
<clipPath id="cp120">
<path d="M 0 0 L 612 0 L 612 791.25 L 0 791.25 Z " fill-rule="evenodd"/>
</clipPath>
<g clip-path="url(#cp120)">
<text xml:space="preserve" transform="matrix(.75 0 0 .75 0 -792)" font-size="14.66" font-family="Calibri"><tspan y="1528" x="289.76564"> </tspan></text>
</g>
<clipPath id="cp121">
<path d="M 0 0 L 612 0 L 612 791.25 L 0 791.25 Z " fill-rule="evenodd"/>
</clipPath>
<g clip-path="url(#cp121)">
<text xml:space="preserve" transform="matrix(.75 0 0 .75 0 -792)" font-size="14.66" font-family="Calibri"><tspan y="1546" x="96"> </tspan></text>
</g>
<clipPath id="cp122">
<path d="M 0 0 L 612 0 L 612 791.25 L 0 791.25 Z " fill-rule="evenodd"/>
</clipPath>
<g clip-path="url(#cp122)">
<text xml:space="preserve" transform="matrix(.75 0 0 .75 0 -792)" font-size="14.66" font-family="Calibri"><tspan y="1546" x="99.3125"> </tspan></text>
</g>
<clipPath id="cp123">
<path d="M 0 0 L 612 0 L 612 791.25 L 0 791.25 Z " fill-rule="evenodd"/>
</clipPath>
<g clip-path="url(#cp123)">
<text xml:space="preserve" transform="matrix(.75 0 0 .75 0 -792)" font-size="14.66" font-family="Calibri"><tspan y="1564" x="96 104.315708 107.6792 115.40808 118.771579 122.13507 129.83533 133.14873 140.29079 147.58313 154.60353 160.80095 168.5012 171.8647 179.56496 186.4637 189.7771 196.93347 203.28118 210.98143 218.27378 223.38343 226.74692 234.03926 241.73952 247.93694 255.22928">Violin Teaching Experience:</tspan></text>
</g>
<clipPath id="cp124">
<path d="M 0 0 L 612 0 L 612 791.25 L 0 791.25 Z " fill-rule="evenodd"/>
</clipPath>
<g clip-path="url(#cp124)">
<text xml:space="preserve" transform="matrix(.75 0 0 .75 0 -792)" font-size="14.66" font-family="Calibri"><tspan y="1564" x="259.14064"> </tspan></text>
</g>
<clipPath id="cp125">
<path d="M 0 0 L 612 0 L 612 791.25 L 0 791.25 Z " fill-rule="evenodd"/>
</clipPath>
<g clip-path="url(#cp125)">
<text xml:space="preserve" transform="matrix(.75 0 0 .75 0 -792)" font-size="14.66" font-family="Calibri"><tspan y="1582" x="96 108.53081 115.55121 118.9147 126.61496 131.52423 138.54463 141.90813 149.60839 156.90073 164.60099 167.91439 174.93479 178.24819 183.98044 188.88971 196.58997 204.29022 207.65372 215.3826 218.696 226.42488 230.89762 234.21102 241.63933 249.06764 253.55469 260.983 268.41133 271.72474 278.34437 281.70787 289.43675 292.80024 296.16374 303.86399 307.17738 312.90965 317.8189 325.51918 333.21943 340.51179 348.21205 353.12129 358.85353 362.16694 369.8672 377.15956 382.06883 392.54576 399.83808 407.13044 414.8307 418.1441 425.57243 433.00074 440.42906 447.85737 452.34443 459.77275 467.20106 474.62937">Maintained a studio of 20-30 violin students between 2012-2019</tspan></text>
</g>
<clipPath id="cp126">
<path d="M 0 0 L 612 0 L 612 791.25 L 0 791.25 Z " fill-rule="evenodd"/>
</clipPath>
<g clip-path="url(#cp126)">
<text xml:space="preserve" transform="matrix(.75 0 0 .75 0 -792)" font-size="14.66" font-family="Calibri"><tspan y="1582" x="482.04689"> </tspan></text>
</g>
<clipPath id="cp127">
<path d="M 0 0 L 612 0 L 612 791.25 L 0 791.25 Z " fill-rule="evenodd"/>
</clipPath>
<g clip-path="url(#cp127)">
<text xml:space="preserve" transform="matrix(.75 0 0 .75 0 -792)" font-size="14.66" font-family="CenturyStd"><tspan y="1598" x="96">&#x00a0;</tspan></text>
</g>
<clipPath id="cp128">
<path d="M 0 0 L 612 0 L 612 791.25 L 0 791.25 Z " fill-rule="evenodd"/>
</clipPath>
<g clip-path="url(#cp128)">
<text xml:space="preserve" transform="matrix(.75 0 0 .75 0 -792)" font-size="17.33" font-family="Arial" font-weight="bold"><tspan y="1619" x="96 108.513828 119.09854 129.68326 140.26798 145.08229 154.71938 164.35646 169.17078 178.80786 189.39258 199.9773 204.79161 209.60593 220.19065 225.96105 235.59813 242.34156 251.97864 261.61573 267.3861">Hobbies and Interests</tspan></text>
</g>
<clipPath id="cp129">
<path d="M 0 0 L 612 0 L 612 791.25 L 0 791.25 Z " fill-rule="evenodd"/>
</clipPath>
<g clip-path="url(#cp129)">
<text xml:space="preserve" transform="matrix(.75 0 0 .75 0 -792)" font-size="14.66" font-family="Arial" font-weight="bold"><tspan y="1619" x="277.01564"> </tspan></text>
</g>
<clipPath id="cp130">
<path d="M 0 0 L 612 0 L 612 791.25 L 0 791.25 Z " fill-rule="evenodd"/>
</clipPath>
<g clip-path="url(#cp130)">
<text xml:space="preserve" transform="matrix(.75 0 0 .75 0 -792)" font-size="14.66" font-family="Calibri"><tspan y="1637" x="96"> </tspan></text>
</g>
<clipPath id="cp131">
<path d="M 0 0 L 612 0 L 612 791.25 L 0 791.25 Z " fill-rule="evenodd"/>
</clipPath>
<g clip-path="url(#cp131)">
<text xml:space="preserve" transform="matrix(.75 0 0 .75 0 -792)" font-size="14.66" font-family="Calibri"><tspan y="1655" x="96 105.460727 112.481128 118.21338 125.913639 130.58675">NashJS</tspan></text>
</g>
<clipPath id="cp132">
<path d="M 0 0 L 612 0 L 612 791.25 L 0 791.25 Z " fill-rule="evenodd"/>
</clipPath>
<g clip-path="url(#cp132)">
<text xml:space="preserve" transform="matrix(.75 0 0 .75 0 -792)" font-size="14.66" font-family="Calibri"><tspan y="1655" x="137.3125"> </tspan></text>
</g>
<clipPath id="cp133">
<path d="M 0 0 L 612 0 L 612 791.25 L 0 791.25 Z " fill-rule="evenodd"/>
</clipPath>
<g clip-path="url(#cp133)">
<text xml:space="preserve" transform="matrix(.75 0 0 .75 0 -792)" font-size="14.66" font-family="Calibri"><tspan y="1673" x="96 108.53081 116.231067 121.96332 125.32681">Music</tspan></text>
</g>
<clipPath id="cp134">
<path d="M 0 0 L 612 0 L 612 791.25 L 0 791.25 Z " fill-rule="evenodd"/>
</clipPath>
<g clip-path="url(#cp134)">
<text xml:space="preserve" transform="matrix(.75 0 0 .75 0 -792)" font-size="14.66" font-family="Calibri"><tspan y="1673" x="131.51563"> </tspan></text>
</g>
<clipPath id="cp135">
<path d="M 0 0 L 612 0 L 612 791.25 L 0 791.25 Z " fill-rule="evenodd"/>
</clipPath>
<g clip-path="url(#cp135)">
<text xml:space="preserve" transform="matrix(.75 0 0 .75 0 -792)" font-size="14.66" font-family="Calibri"><tspan y="1691" x="96 103.57144 111.2717 119.00058 123.90985 131.63874 138.53748 143.64713 150.66753 158.36779 166.06804">Photography</tspan></text>
</g>
<clipPath id="cp136">
<path d="M 0 0 L 612 0 L 612 791.25 L 0 791.25 Z " fill-rule="evenodd"/>
</clipPath>
<g clip-path="url(#cp136)">
<text xml:space="preserve" transform="matrix(.75 0 0 .75 0 -792)" font-size="14.66" font-family="Calibri"><tspan y="1691" x="172.6875"> </tspan></text>
</g>
<clipPath id="cp137">
<path d="M 0 0 L 612 0 L 612 791.25 L 0 791.25 Z " fill-rule="evenodd"/>
</clipPath>
<g clip-path="url(#cp137)">
<text xml:space="preserve" transform="matrix(.75 0 0 .75 0 -792)" font-size="14.66" font-family="Calibri"><tspan y="1709" x="96 103.81476 111.54364 116.01637 120.489109 127.78145">Coffee</tspan></text>
</g>
<clipPath id="cp138">
<path d="M 0 0 L 612 0 L 612 791.25 L 0 791.25 Z " fill-rule="evenodd"/>
</clipPath>
<g clip-path="url(#cp138)">
<text xml:space="preserve" transform="matrix(.75 0 0 .75 0 -792)" font-size="14.66" font-family="Calibri"><tspan y="1709" x="135.0625"> </tspan></text>
</g>
<clipPath id="cp139">
<path d="M 0 0 L 612 0 L 612 791.25 L 0 791.25 Z " fill-rule="evenodd"/>
</clipPath>
<g clip-path="url(#cp139)">
<text xml:space="preserve" transform="matrix(.75 0 0 .75 0 -792)" font-size="14.66" font-family="Calibri"><tspan y="1727" x="96 105.01703 112.30937 118.041629 121.40512 128.30387">Design</tspan></text>
</g>
<clipPath id="cp140">
<path d="M 0 0 L 612 0 L 612 791.25 L 0 791.25 Z " fill-rule="evenodd"/>
</clipPath>
<g clip-path="url(#cp140)">
<text xml:space="preserve" transform="matrix(.75 0 0 .75 0 -792)" font-size="14.66" font-family="Calibri"><tspan y="1727" x="136"> </tspan></text>
</g>
<clipPath id="cp141">
<path d="M 0 0 L 612 0 L 612 791.25 L 0 791.25 Z " fill-rule="evenodd"/>
</clipPath>
<g clip-path="url(#cp141)">
<text xml:space="preserve" transform="matrix(.75 0 0 .75 0 -792)" font-size="14.66" font-family="Calibri"><tspan y="1745" x="96 104.4803 111.099948 114.46344 121.48384 126.39311 129.7566 137.48549">Aviation</tspan></text>
</g>
<clipPath id="cp142">
<path d="M 0 0 L 612 0 L 612 791.25 L 0 791.25 Z " fill-rule="evenodd"/>
</clipPath>
<g clip-path="url(#cp142)">
<text xml:space="preserve" transform="matrix(.75 0 0 .75 0 -792)" font-size="14.66" font-family="Calibri"><tspan y="1745" x="145.17188"> </tspan></text>
</g>
<clipPath id="cp143">
<path d="M 0 0 L 612 0 L 612 791.25 L 0 791.25 Z " fill-rule="evenodd"/>
</clipPath>
<g clip-path="url(#cp143)">
<text xml:space="preserve" transform="matrix(.75 0 0 .75 0 -792)" font-size="14.66" font-family="Calibri"><tspan y="1762" x="96 103.15637 109.504077 116.79642 121.90607 128.10349 131.46698 137.19924">Exercise</tspan></text>
</g>
<clipPath id="cp144">
<path d="M 0 0 L 612 0 L 612 791.25 L 0 791.25 Z " fill-rule="evenodd"/>
</clipPath>
<g clip-path="url(#cp144)">
<text xml:space="preserve" transform="matrix(.75 0 0 .75 0 -792)" font-size="14.66" font-family="Calibri"><tspan y="1762" x="144.48438"> </tspan></text>
</g>
<clipPath id="cp145">
<path d="M 0 0 L 612 0 L 612 791.25 L 0 791.25 Z " fill-rule="evenodd"/>
</clipPath>
<g clip-path="url(#cp145)">
<text xml:space="preserve" transform="matrix(.75 0 0 .75 0 -792)" font-size="14.66" font-family="Calibri"><tspan y="1780" x="96 103.14206 108.25171 115.27211 121.891757 129.1841">Travel</tspan></text>
</g>
<clipPath id="cp146">
<path d="M 0 0 L 612 0 L 612 791.25 L 0 791.25 Z " fill-rule="evenodd"/>
</clipPath>
<g clip-path="url(#cp146)">
<text xml:space="preserve" transform="matrix(.75 0 0 .75 0 -792)" font-size="14.66" font-family="CenturyStd"><tspan y="1780" x="132.54688">&#x00a0;</tspan></text>
</g>
</g>
</svg>
