<?xml version="1.0" encoding="utf-8"?>
<!-- Generator: Adobe Illustrator 23.0.3, SVG Export Plug-In . SVG Version: 6.00 Build 0)  -->
<svg version="1.1" id="Layer_1" xmlns="http://www.w3.org/2000/svg" xmlns:xlink="http://www.w3.org/1999/xlink" x="0px" y="0px"
	 viewBox="0 0 288 144" style="enable-background:new 0 0 288 144;" xml:space="preserve">
<style type="text/css">
	.st0{fill:none;}
	.st1{fill:#C6DD7F;}
	.st2{fill:#E9DDB7;}
	.st3{fill:#A6D0E4;}
	.st4{fill:#1E3263;}
	.st5{fill:url(#Alyssa);stroke:#1E3263;stroke-width:1.6287;stroke-miterlimit:10;}
	.st6{stroke:#FFFFFF;stroke-width:2;stroke-miterlimit:10;}
</style>
<pattern  width="144.1" height="138.4" patternUnits="userSpaceOnUse" id="Alyssa" viewBox="100 -216.8 144.1 138.4" style="overflow:visible;">
	<g>
		<rect x="100" y="-216.8" class="st0" width="144.1" height="138.4"/>
		<g>
			<path class="st1" d="M311-58.3c-11.8-1.4-19.4,0.3-22.7,3.1c-3,2.5-5,5.4-2.2,11.9c2.9,7.1,1.5,14.7-5.5,15.9
				c-6.2,1-10.9-4.8-11.2-12.3c-0.2-5.2-1.9-8.3-5.5-7.6c-3.6,0.7-4.6,5.9-3.6,11.8c1.4,8.1,5.5,11.8,6.2,20.2
				c0.5,6.1-2.9,13.7-12.5,15c-9.3,1.4-15.9-4.3-16.6-10.5c-0.7-6.6,3.6-10.9,3.1-17.6c-0.5-6.7-4-10.2-5.9-17.3
				c-2.8-10.5,1.2-19,7.8-22.7c14.7-8.1,22.8,3.6,36,1.6c10.9-1.7,23.3-18.2,33-19.5c8.2-1.2,13.8,4.7,15,14
				C327.6-63,321.7-57.1,311-58.3z M268.8-57.8c0-2.3-1.9-4.2-4.2-4.2c-2.3,0-4.2,1.9-4.2,4.2s1.9,4.2,4.2,4.2
				C267-53.6,268.8-55.5,268.8-57.8z M318.3-73.2c0-1-0.8-1.7-1.7-1.7s-1.7,0.8-1.7,1.7s0.8,1.7,1.7,1.7S318.3-72.2,318.3-73.2z"/>
		</g>
		<g>
			<path class="st2" d="M148.8-77.5c0,7.2,4.6,13.8-1,16.3c-8.5,3.8-28-14.3-28-36.2c0-12,8.7-19,17.8-19c12.3,0,18,8.2,18,17.5
				C155.6-89.5,148.8-85.7,148.8-77.5z M143.4-82.9c0-1.1-0.9-2.1-2.1-2.1c-1.1,0-2.1,0.9-2.1,2.1c0,1.1,0.9,2.1,2.1,2.1
				C142.5-80.8,143.4-81.7,143.4-82.9z"/>
			<path class="st3" d="M223.5-54c-7.9,2.7-19.4-15.3-17.7-27c1.2-8.2,7.1-13.2,13.1-14.2c7.5-1.3,12.9,2.6,13.3,7.2
				c0.5,6.3-3.6,7.5-4.2,15C227.4-65.9,231.7-56.8,223.5-54z M219.7-81.5c0-1.4-1.2-2.6-2.6-2.6c-1.4,0-2.6,1.2-2.6,2.6
				c0,1.4,1.2,2.6,2.6,2.6C218.5-78.9,219.7-80.1,219.7-81.5z"/>
			<path class="st2" d="M119.4-76.5c0,1.4-1.2,2.6-2.6,2.6c-1.4,0-2.6-1.2-2.6-2.6s1.2-2.6,2.6-2.6
				C118.2-79.1,119.4-77.9,119.4-76.5z"/>
			<path class="st3" d="M184.6-84.2c0.7,8.1,12.7,7,17.9,14.2c10.5,14.5-1.2,46.4-21.6,46.4c-11.7,0-24.2-9.7-24.2-29.2
				c0-15.8,10.2-21.5,8.2-42.2c-1-10.8-12.5-20.3-12.5-34.8c0-5.9,3.6-13.4,11.6-13.4c7.1,0,10.8,6,10.8,12.9c0,6.8-5.4,15.7,1.4,19
				c5.2,2.6,13.2-4.8,19.5-6.8c5.2-1.6,12.4,0.2,14.8,8.5c2.5,8.9-3.3,14.7-11.6,16.7C192.5-91.3,184-90.6,184.6-84.2z M168.6-114.7
				c0-1.8-1.5-3.3-3.3-3.3c-1.8,0-3.3,1.5-3.3,3.3c0,1.8,1.5,3.3,3.3,3.3C167.1-111.5,168.6-112.9,168.6-114.7z M194.6-105.1
				c1.3,0,2.3-1,2.3-2.3c0-1.3-1-2.3-2.3-2.3c-1.3,0-2.3,1-2.3,2.3C192.2-106.1,193.3-105.1,194.6-105.1z M174.6-45.4
				c0-1.8-1.5-3.3-3.3-3.3c-1.8,0-3.3,1.5-3.3,3.3c0,1.8,1.5,3.3,3.3,3.3C173.1-42.1,174.6-43.6,174.6-45.4z"/>
			<path class="st1" d="M166.9-58.3c-11.8-1.4-19.4,0.3-22.7,3.1c-3,2.5-5,5.4-2.2,11.9c2.9,7.1,1.5,14.7-5.5,15.9
				c-6.2,1-10.9-4.8-11.2-12.3c-0.2-5.2-1.9-8.3-5.5-7.6c-3.6,0.7-4.6,5.9-3.6,11.8c1.4,8.1,5.5,11.8,6.2,20.2
				c0.5,6.1-2.9,13.7-12.5,15c-9.3,1.4-15.9-4.3-16.6-10.5c-0.7-6.6,3.6-10.9,3.1-17.6c-0.5-6.7-4-10.2-5.9-17.3
				c-2.8-10.5,1.2-19,7.8-22.7c14.7-8.1,22.8,3.6,36,1.6c10.9-1.7,23.3-18.2,33-19.5c8.2-1.2,13.8,4.7,15,14
				C183.5-63,177.6-57.1,166.9-58.3z M124.7-57.8c0-2.3-1.9-4.2-4.1-4.2c-2.3,0-4.2,1.9-4.2,4.2s1.9,4.2,4.2,4.2
				C122.9-53.6,124.7-55.5,124.7-57.8z M174.2-73.2c0-1-0.8-1.7-1.7-1.7c-1,0-1.7,0.8-1.7,1.7s0.8,1.7,1.7,1.7
				C173.4-71.4,174.2-72.2,174.2-73.2z"/>
		</g>
		<g>
			<path class="st3" d="M290.3-104.8c0,6.2-4.2,10.7-8.6,11.6c-4.5,0.9-8.3-1.3-13,1.2c-4.8,2.6-7.1,11.1-16.8,11.1
				c-8,0-15.2-8-15.2-18.8c0-20.2,13.1-29.2,25.6-29.2C278.9-129.1,290.3-116.4,290.3-104.8z M270.6-119.2c0-2.1-1.7-3.8-3.8-3.8
				c-2.1,0-3.8,1.7-3.8,3.8c0,2.1,1.7,3.8,3.8,3.8C268.9-115.4,270.6-117.1,270.6-119.2z"/>
			<path class="st1" d="M311-196.7c-11.8-1.4-19.4,0.3-22.7,3.1c-3,2.5-5,5.4-2.2,11.9c2.9,7.1,1.5,14.7-5.5,15.9
				c-6.2,1-10.9-4.8-11.2-12.3c-0.2-5.2-1.9-8.3-5.5-7.6c-3.6,0.7-4.6,5.9-3.6,11.8c1.4,8.1,5.5,11.8,6.2,20.2
				c0.5,6.1-2.9,13.7-12.5,15c-9.3,1.4-15.9-4.3-16.6-10.5c-0.7-6.6,3.6-10.9,3.1-17.6c-0.5-6.7-4-10.2-5.9-17.3
				c-2.8-10.5,1.2-19,7.8-22.7c14.7-8.1,22.8,3.6,36,1.6c10.9-1.7,23.3-18.2,33-19.5c8.2-1.2,13.8,4.7,15,14
				C327.6-201.3,321.7-195.4,311-196.7z M268.8-196.2c0-2.3-1.9-4.2-4.2-4.2c-2.3,0-4.2,1.9-4.2,4.2c0,2.3,1.9,4.2,4.2,4.2
				C267-192,268.8-193.9,268.8-196.2z M318.3-211.5c0-1-0.8-1.7-1.7-1.7s-1.7,0.8-1.7,1.7c0,1,0.8,1.7,1.7,1.7
				S318.3-210.6,318.3-211.5z"/>
		</g>
		<g>
			<path class="st3" d="M131.8-133.2c-14,2-21.2-13.3-17.7-20.3c3.7-7.3,12.1-4.2,19.5-4.2c9.7,0,16.4-7.6,20.4-2.2
				C158.3-154.4,149-135.6,131.8-133.2z M132.3-150.7c0-1.2-1-2.2-2.2-2.2c-1.2,0-2.2,1-2.2,2.2c0,1.2,1,2.2,2.2,2.2
				C131.3-148.4,132.3-149.4,132.3-150.7z"/>
			<path class="st2" d="M148.8-215.9c0,7.2,4.6,13.8-1,16.3c-8.5,3.8-28-14.3-28-36.2c0-12,8.7-19,17.8-19c12.3,0,18,8.2,18,17.5
				C155.6-227.9,148.8-224.1,148.8-215.9z M143.4-221.2c0-1.1-0.9-2.1-2.1-2.1c-1.1,0-2.1,0.9-2.1,2.1c0,1.1,0.9,2.1,2.1,2.1
				C142.5-219.2,143.4-220.1,143.4-221.2z"/>
			<path class="st3" d="M146.2-104.8c0,6.2-4.2,10.7-8.6,11.6c-4.5,0.9-8.3-1.3-13,1.2c-4.8,2.6-7.1,11.1-16.8,11.1
				c-8,0-15.2-8-15.2-18.8c0-20.2,13.1-29.2,25.6-29.2C134.7-129.1,146.2-116.4,146.2-104.8z M126.4-119.2c0-2.1-1.7-3.8-3.8-3.8
				c-2.1,0-3.8,1.7-3.8,3.8c0,2.1,1.7,3.8,3.8,3.8C124.7-115.4,126.4-117.1,126.4-119.2z"/>
			<path class="st1" d="M145.5-128.5c0,1.3-1.1,2.4-2.4,2.4c-1.3,0-2.4-1.1-2.4-2.4c0-1.3,1.1-2.4,2.4-2.4
				C144.4-131,145.5-129.9,145.5-128.5z"/>
			<path class="st3" d="M229.2-147c-3.2,4.7,1,10.7-1.4,15.2c-2.4,4.5-6.7,5-9.9,2.6c-3.6-2.8-3.4-6.6-8.3-8.8
				c-5.5-2.5-18,2.2-19.7-7.3c-0.9-4.8,2.4-8.6,7.3-9.7c6.1-1.4,9.4-0.2,15.4-3.1c6.1-2.9,11.2-9,22.1-12.1
				c10.4-3,16.1,1.6,16.6,5.9C252.3-155.9,234.2-154.4,229.2-147z M226.9-154.5c0-1.2-1-2.2-2.2-2.2c-1.2,0-2.2,1-2.2,2.2
				c0,1.2,1,2.2,2.2,2.2C225.9-152.2,226.9-153.2,226.9-154.5z"/>
			<path class="st2" d="M256.1-107.9c0,17.2-14.5,25.5-27,22.8c-10.3-2.2-12.8-17.3-16.7-26.2c-3.7-8.6-8.8-22.5-20.2-22.5
				c-11.2,0-12.8,14.5-23.7,14.5c-11,0-24.5-15.7-24.5-39.7c0-14.7,9.8-31.5,20.8-30.7c11.7,0.8,4.5,19.7,15.3,19.7
				c9.5,0,7.9-16.3,9.2-23.3c1.7-9,6.8-14.2,18.5-13.2c14.4,1.2,22.3,13.5,18.9,23.3c-4,11.5-23.9,17.3-21.5,30.5
				c1.3,7.6,13,12,26,16.2C245.8-131.7,256.1-125,256.1-107.9z M211.2-183.7c0,1.8,1.5,3.3,3.3,3.3c1.8,0,3.3-1.5,3.3-3.3
				s-1.5-3.3-3.3-3.3C212.6-187,211.2-185.5,211.2-183.7z M164.5-158.8c0-1-0.8-1.7-1.7-1.7c-1,0-1.7,0.8-1.7,1.7
				c0,1,0.8,1.7,1.7,1.7C163.7-157.1,164.5-157.8,164.5-158.8z M182-148.1c0-2.1-1.7-3.8-3.8-3.8c-2.1,0-3.8,1.7-3.8,3.8
				c0,2.1,1.7,3.8,3.8,3.8C180.2-144.3,182-146,182-148.1z M201.8-163.6c0-0.9-0.7-1.6-1.6-1.6c-0.9,0-1.6,0.7-1.6,1.6
				c0,0.9,0.7,1.6,1.6,1.6C201.1-162.1,201.8-162.8,201.8-163.6z M231.5-108.9c0-1.8-1.4-3.2-3.2-3.2c-1.8,0-3.2,1.4-3.2,3.2
				c0,1.8,1.4,3.2,3.2,3.2C230.1-105.8,231.5-107.2,231.5-108.9z"/>
			<path class="st3" d="M223.5-192.4c-7.9,2.7-19.4-15.3-17.7-27c1.2-8.2,7.1-13.2,13.1-14.2c7.5-1.3,12.9,2.6,13.3,7.2
				c0.5,6.3-3.6,7.5-4.2,15C227.4-204.3,231.7-195.2,223.5-192.4z M219.7-219.9c0-1.4-1.2-2.6-2.6-2.6c-1.4,0-2.6,1.2-2.6,2.6
				c0,1.4,1.2,2.6,2.6,2.6C218.5-217.3,219.7-218.4,219.7-219.9z"/>
			<path class="st2" d="M119.4-214.8c0,1.4-1.2,2.6-2.6,2.6c-1.4,0-2.6-1.2-2.6-2.6c0-1.4,1.2-2.6,2.6-2.6
				C118.2-217.4,119.4-216.3,119.4-214.8z"/>
			<path class="st2" d="M253.3-128.1c0-8.4-5.1-15.2-11.3-15.2s-11.3,6.8-11.3,15.2c0,8.4,5.1,12.4,11.3,12.4
				S253.3-119.7,253.3-128.1z"/>
			<path class="st3" d="M184.6-222.6c0.7,8.1,12.7,7,17.9,14.2c10.5,14.5-1.2,46.4-21.6,46.4c-11.7,0-24.2-9.7-24.2-29.2
				c0-15.8,10.2-21.5,8.2-42.2c-1-10.8-12.5-20.3-12.5-34.8c0-5.9,3.6-13.4,11.6-13.4c7.1,0,10.8,6,10.8,12.9c0,6.8-5.4,15.7,1.4,19
				c5.2,2.6,13.2-4.8,19.5-6.8c5.2-1.6,12.4,0.2,14.8,8.5c2.5,8.9-3.3,14.7-11.6,16.7C192.5-229.7,184-229,184.6-222.6z
				 M168.6-253.1c0-1.8-1.5-3.3-3.3-3.3c-1.8,0-3.3,1.5-3.3,3.3c0,1.8,1.5,3.3,3.3,3.3C167.1-249.8,168.6-251.3,168.6-253.1z
				 M194.6-243.4c1.3,0,2.3-1,2.3-2.3c0-1.3-1-2.3-2.3-2.3c-1.3,0-2.3,1-2.3,2.3C192.2-244.5,193.3-243.4,194.6-243.4z M174.6-183.7
				c0-1.8-1.5-3.3-3.3-3.3c-1.8,0-3.3,1.5-3.3,3.3c0,1.8,1.5,3.3,3.3,3.3C173.1-180.5,174.6-181.9,174.6-183.7z"/>
			<path class="st1" d="M166.9-196.7c-11.8-1.4-19.4,0.3-22.7,3.1c-3,2.5-5,5.4-2.2,11.9c2.9,7.1,1.5,14.7-5.5,15.9
				c-6.2,1-10.9-4.8-11.2-12.3c-0.2-5.2-1.9-8.3-5.5-7.6c-3.6,0.7-4.6,5.9-3.6,11.8c1.4,8.1,5.5,11.8,6.2,20.2
				c0.5,6.1-2.9,13.7-12.5,15c-9.3,1.4-15.9-4.3-16.6-10.5c-0.7-6.6,3.6-10.9,3.1-17.6c-0.5-6.7-4-10.2-5.9-17.3
				c-2.8-10.5,1.2-19,7.8-22.7c14.7-8.1,22.8,3.6,36,1.6c10.9-1.7,23.3-18.2,33-19.5c8.2-1.2,13.8,4.7,15,14
				C183.5-201.3,177.6-195.4,166.9-196.7z M124.7-196.2c0-2.3-1.9-4.2-4.1-4.2c-2.3,0-4.2,1.9-4.2,4.2c0,2.3,1.9,4.2,4.2,4.2
				C122.9-192,124.7-193.9,124.7-196.2z M174.2-211.5c0-1-0.8-1.7-1.7-1.7c-1,0-1.7,0.8-1.7,1.7c0,1,0.8,1.7,1.7,1.7
				C173.4-209.8,174.2-210.6,174.2-211.5z"/>
			<path class="st1" d="M230.2-174.4c0,0.8-0.6,1.4-1.4,1.4c-0.8,0-1.4-0.6-1.4-1.4c0-0.8,0.6-1.4,1.4-1.4
				C229.6-175.7,230.2-175.1,230.2-174.4z"/>
			<path class="st2" d="M235.7-212.8c0,1.2-1,2.2-2.2,2.2s-2.2-1-2.2-2.2c0-1.2,1-2.2,2.2-2.2S235.7-214,235.7-212.8z"/>
			<path class="st3" d="M152.2-189.6c0,0.7-0.5,1.2-1.2,1.2s-1.2-0.5-1.2-1.2s0.5-1.2,1.2-1.2S152.2-190.2,152.2-189.6z"/>
			<path class="st3" d="M148.6-121.1c0,0.8-0.6,1.4-1.4,1.4s-1.4-0.6-1.4-1.4c0-0.8,0.6-1.4,1.4-1.4S148.6-121.9,148.6-121.1z"/>
			<path class="st2" d="M233.1-143.1c0,0.7-0.5,1.2-1.2,1.2c-0.7,0-1.2-0.5-1.2-1.2c0-0.7,0.5-1.2,1.2-1.2
				C232.6-144.3,233.1-143.7,233.1-143.1z"/>
			<path class="st1" d="M195.9-125.1c0,1.9-1.5,3.4-3.4,3.4c-1.9,0-3.4-1.5-3.4-3.4c0-1.9,1.5-3.4,3.4-3.4
				C194.3-128.5,195.9-127,195.9-125.1z"/>
			<path class="st2" d="M200.8-85.3c0,1.2-0.9,2.1-2.1,2.1s-2.1-0.9-2.1-2.1s0.9-2.1,2.1-2.1S200.8-86.4,200.8-85.3z"/>
			<path class="st2" d="M162-91.6c0,0.9-0.7,1.6-1.6,1.6c-0.9,0-1.6-0.7-1.6-1.6c0-0.9,0.7-1.6,1.6-1.6
				C161.3-93.1,162-92.4,162-91.6z"/>
			<circle class="st1" cx="233.1" cy="-205.6" r="2.6"/>
			<circle class="st3" cx="223.1" cy="-170.8" r="2.4"/>
			<path class="st2" d="M127.7-164.2c0,1.4-1.2,2.6-2.6,2.6c-1.4,0-2.6-1.2-2.6-2.6c0-1.4,1.2-2.6,2.6-2.6
				C126.5-166.8,127.7-165.6,127.7-164.2z"/>
			<path class="st3" d="M122.7-171.3c0,0.7-0.6,1.3-1.3,1.3c-0.7,0-1.3-0.6-1.3-1.3s0.6-1.3,1.3-1.3
				C122.1-172.6,122.7-172,122.7-171.3z"/>
			<path class="st2" d="M186.9-119.4c0,0.9-0.7,1.6-1.6,1.6c-0.9,0-1.6-0.7-1.6-1.6c0-0.9,0.7-1.6,1.6-1.6
				C186.2-120.9,186.9-120.2,186.9-119.4z"/>
		</g>
		<g>
			<path class="st3" d="M85-147c-3.2,4.7,1,10.7-1.4,15.2c-2.4,4.5-6.7,5-9.9,2.6c-3.6-2.8-3.4-6.6-8.3-8.8
				c-5.5-2.5-18,2.2-19.7-7.3c-0.9-4.8,2.4-8.6,7.3-9.7c6.1-1.4,9.4-0.2,15.4-3.1c6.1-2.9,11.2-9,22.1-12.1
				c10.4-3,16.1,1.6,16.6,5.9C108.2-155.9,90-154.4,85-147z M82.8-154.5c0-1.2-1-2.2-2.2-2.2c-1.2,0-2.2,1-2.2,2.2
				c0,1.2,1,2.2,2.2,2.2C81.8-152.2,82.8-153.2,82.8-154.5z"/>
			<path class="st2" d="M112-107.9c0,17.2-14.5,25.5-27,22.8c-10.3-2.2-12.8-17.3-16.7-26.2c-3.7-8.6-8.8-22.5-20.2-22.5
				c-11.2,0-12.8,14.5-23.7,14.5c-11,0-24.5-15.7-24.5-39.7c0-14.7,9.8-31.5,20.8-30.7c11.7,0.8,4.5,19.7,15.3,19.7
				c9.5,0,7.9-16.3,9.2-23.3c1.7-9,6.8-14.2,18.5-13.2c14.4,1.2,22.3,13.5,18.9,23.3c-4,11.5-23.9,17.3-21.5,30.5
				c1.3,7.6,13,12,26,16.2C101.7-131.7,112-125,112-107.9z M67-183.7c0,1.8,1.5,3.3,3.3,3.3c1.8,0,3.3-1.5,3.3-3.3s-1.5-3.3-3.3-3.3
				C68.5-187,67-185.5,67-183.7z M20.4-158.8c0-1-0.8-1.7-1.7-1.7c-1,0-1.7,0.8-1.7,1.7c0,1,0.8,1.7,1.7,1.7
				C19.6-157.1,20.4-157.8,20.4-158.8z M37.8-148.1c0-2.1-1.7-3.8-3.8-3.8c-2.1,0-3.8,1.7-3.8,3.8c0,2.1,1.7,3.8,3.8,3.8
				C36.1-144.3,37.8-146,37.8-148.1z M57.7-163.6c0-0.9-0.7-1.6-1.6-1.6c-0.9,0-1.6,0.7-1.6,1.6c0,0.9,0.7,1.6,1.6,1.6
				C57-162.1,57.7-162.8,57.7-163.6z M87.4-108.9c0-1.8-1.4-3.2-3.2-3.2c-1.8,0-3.2,1.4-3.2,3.2c0,1.8,1.4,3.2,3.2,3.2
				C85.9-105.8,87.4-107.2,87.4-108.9z"/>
			<path class="st2" d="M109.2-128.1c0-8.4-5.1-15.2-11.3-15.2s-11.3,6.8-11.3,15.2c0,8.4,5.1,12.4,11.3,12.4
				S109.2-119.7,109.2-128.1z"/>
		</g>
	</g>
</pattern>
<g>
	<g>
		<path class="st4" d="M24.5,111.2c6.6-26.8,13.2-53.6,19.7-80.4c-1-0.1-2-0.3-2.9-0.4c1.6,31.2,3.3,62.5,8.4,93.4
			c0.2,1.4,2.7,1.5,2.9,0C57.9,85.3,63.1,46.7,68.3,8.2c-1-0.1-2-0.3-2.9-0.4c2.8,33,5.6,66,8.4,98.9c0.1,1.7,2.4,2,2.9,0.4
			c9.9-27.3,10.1-56.9,19.8-84.3c-1-0.1-2-0.3-2.9-0.4c1.3,34,0.7,68.1-1.7,102.1c-0.1,1.5,2.1,2,2.8,0.8
			c12.9-24.3,11.8-52.8,21.8-78c-1-0.1-2-0.3-2.9-0.4c-0.5,20.9-1.1,41.7-1.6,62.6c0,1.5,2.1,2,2.8,0.8c6.7-12.1,12.1-24.8,16-38.1
			c-1-0.1-2-0.3-2.9-0.4c0,7.9-0.3,15.8-0.9,23.6c-0.1,1.4,2.2,2.1,2.8,0.8c5.3-12.5,10.2-25.1,14.6-37.9c-1-0.1-2-0.3-2.9-0.4
			c-1.3,12.1-3.3,24.1-6,36.1c-0.4,1.7,1.7,2.5,2.7,1.2c10.8-14.4,12-32.9,19.6-48.8c-0.9-0.4-1.8-0.8-2.7-1.2
			c-4.6,24.3-9.2,48.5-13.8,72.8c-0.3,1.6,1.8,2.6,2.7,1.2c17.5-27.5,23.2-60.1,36.3-89.6c-0.9-0.4-1.8-0.8-2.7-1.2
			c-4.8,24-8.9,48.1-12.2,72.3c-0.2,1.6,1.8,2.7,2.7,1.2c12.5-19.8,23-40.7,33.5-61.6c-0.9-0.4-1.8-0.8-2.7-1.2
			c-4.2,28.4-11.3,56.3-18.4,84.1c-0.3,1.1,0.7,2.2,1.8,1.8c4-1.2,6-4.3,7.5-8c2.3-5.6,4.2-11.5,6.3-17.2
			c4.8-13.2,9.6-26.3,14.4-39.5c-1-0.3-1.9-0.5-2.9-0.8c-2.9,14.8-5.7,29.7-8.6,44.5c-0.3,1.3,1.5,2.7,2.5,1.5
			c7-8.6,11.6-18.5,16.3-28.4c5.5-11.4,10.9-22.8,16.4-34.2c-0.9-0.4-1.8-0.8-2.7-1.2c-2.8,17.5-5.6,35.1-8.4,52.6
			c-0.3,1.6,1.8,2.7,2.7,1.2c13.6-22.2,18.7-48.2,30.7-71.2c-0.9-0.3-1.9-0.5-2.8-0.8c-4,33.8-11.1,67.1-20.9,99.6
			c-0.3,1.1,0.8,2.1,1.8,1.8c3.2-0.7,5.2-2.8,6.8-5.5c2.7-4.7,4.7-10,6.9-15c4.9-10.7,9.8-21.5,14.7-32.2c-0.9-0.3-1.9-0.5-2.8-0.8
			c-0.8,8.6-1.6,17.2-2.4,25.8c-0.1,1.5,2.2,2.1,2.8,0.8c4.8-10.4,9.6-20.9,14.4-31.3c0.8-1.7-1.8-3.3-2.6-1.5
			c-4.8,10.4-9.6,20.9-14.4,31.3c0.9,0.3,1.9,0.5,2.8,0.8c0.8-8.6,1.6-17.2,2.4-25.8c0.1-1.5-2.2-2.1-2.8-0.8
			c-4.1,8.9-8.2,17.9-12.2,26.8c-1.9,4.2-3.8,8.3-5.7,12.5c-1.9,4.1-3.7,10.9-8.7,12c0.6,0.6,1.2,1.2,1.8,1.8
			c10-32.8,17-66.4,21.1-100.4c0.2-1.5-2.1-2-2.8-0.8c-12,23-17.1,49-30.7,71.2c0.9,0.4,1.8,0.8,2.7,1.2c2.8-17.5,5.6-35.1,8.4-52.6
			c0.2-1.5-1.9-2.8-2.7-1.2c-5.2,10.8-10.3,21.6-15.5,32.4c-4.9,10.2-9.5,20.8-16.7,29.6c0.8,0.5,1.7,1,2.5,1.5
			c2.9-14.8,5.7-29.7,8.6-44.5c0.4-1.9-2.2-2.6-2.9-0.8c-3.9,10.7-7.8,21.4-11.7,32.1c-1.9,5.2-3.8,10.4-5.7,15.6
			c-1.7,4.7-3.1,13.2-8.7,14.8c0.6,0.6,1.2,1.2,1.8,1.8c7.1-27.8,14.2-55.6,18.4-84.1c0.2-1.5-1.9-2.8-2.7-1.2
			c-10.5,20.9-21.1,41.8-33.5,61.6c0.9,0.4,1.8,0.8,2.7,1.2c3.3-24.2,7.3-48.3,12.2-72.3c0.3-1.6-2-2.8-2.7-1.2
			c-13,29.5-18.8,62.1-36.3,89.6c0.9,0.4,1.8,0.8,2.7,1.2c4.6-24.3,9.2-48.5,13.8-72.8c0.3-1.6-2-2.8-2.7-1.2
			c-7.6,15.9-8.9,34.5-19.6,48.8c0.9,0.4,1.8,0.8,2.7,1.2c2.7-12.2,4.7-24.5,6.1-36.9c0.2-1.8-2.4-1.9-2.9-0.4
			c-4.3,12.6-9.1,25-14.3,37.2c0.9,0.3,1.9,0.5,2.8,0.8c0.6-7.9,0.9-15.7,0.9-23.6c0-1.7-2.5-2-2.9-0.4c-3.8,13-9.1,25.5-15.7,37.3
			c0.9,0.3,1.9,0.5,2.8,0.8c0.5-20.9,1.1-41.7,1.6-62.6c0-1.8-2.4-1.9-2.9-0.4c-9.9,25-8.8,53.3-21.5,77.3c0.9,0.3,1.9,0.5,2.8,0.8
			c2.4-34,2.9-68,1.7-102.1c-0.1-1.7-2.4-2-2.9-0.4c-9.7,27.3-9.9,57-19.8,84.3c1,0.1,2,0.3,2.9,0.4c-2.8-33-5.6-66-8.4-98.9
			c-0.1-1.5-2.7-2.2-2.9-0.4C60.2,45.9,55,84.5,49.8,123c1,0,1.9,0,2.9,0c-5.1-30.6-6.8-61.6-8.3-92.6c-0.1-1.6-2.5-2.1-2.9-0.4
			c-6.6,26.8-13.2,53.6-19.7,80.4C21.2,112.2,24.1,113,24.5,111.2L24.5,111.2z"/>
	</g>
</g>
<ellipse class="st5" cx="143.5" cy="75.5" rx="140.5" ry="31.5"/>
<g>
	<g>
		<path class="st6" d="M7.8,105.9c-2.2,0-3.1-1.2-3.4-1.9c-0.4-0.8-0.5-1.8-0.5-3.1c0-1.7,0.7-4.2,2.3-7.5c1.3-2.8,3.2-6.5,5.6-10.9
			c-1-0.5-1.8-1.2-2.4-1.9c-1.1-1.3-1.7-2.6-1.7-3.9c0-2.6,1.4-4.9,4.2-7c2.4-1.8,5.8-3.2,10.2-4.2l12.5-18.7
			c-2.2,0.2-4.5,0.6-6.9,1.2c-3.7,0.8-6.8,1.7-9.4,2.7c-2.6,0.9-5,1.9-7.1,2.7c-2.1,0.9-3.6,1.5-4.5,1.8l-0.3,0.1H6
			c-0.6,0-1.2-0.2-1.7-0.6c-0.7-0.5-1.1-1.2-1.1-2c0-0.5,0-0.8,2.5-5.6c1.5-3,3.3-6.2,5.4-9.5l0.3-0.5l0.6-0.2
			c11.5-4.1,21.9-6.2,30.8-6.2c10.5,0,18,2.4,22.3,7c1.5,1.6,2.8,3.7,3.6,6.1c0.8,2.4,1.2,4.8,1.2,7.1c0,5.1-1.1,9.9-3.2,14.1
			c-2.1,4.2-5.2,7.9-9.2,11c-3.9,3-8.6,5.4-13.9,7c-5.2,1.6-11.1,2.4-17.3,2.4c-1,0-2.9-0.2-5.6-0.5L17.2,91
			c0.3,0.6,0.4,1.2,0.4,1.7c0,1.3-0.3,2.5-1,3.5c-0.7,1-1.5,2.3-2.6,3.9c-1.1,1.6-1.8,2.7-2.2,3.2c-0.5,0.6-1,1.2-1.6,1.7
			C9.5,105.6,8.7,105.9,7.8,105.9z M28.8,71.5c0.9,0.1,1.7,0.1,2.3,0.1c5.5,0,10.3-0.7,14.2-2.2c3.9-1.4,7.1-3.2,9.4-5.3
			c2.3-2.1,4-4.2,5-6.3c1-2,1.5-3.7,1.5-5c0-1.6-0.6-2.7-1.8-3.6c-1.5-1-3.7-1.8-6.5-2.2c-2.7-0.4-6.1-0.6-10.2-0.6
			c-0.1,2-1.1,4.3-2.9,7.2l-6.5,10.3l2.9-0.3h0.1c1.5,0,2.5,1,2.5,2.5c0,0.6-0.3,2.1-2.7,2.6l-6.7,1.3l-0.9,1.6
			C28.5,71.5,28.6,71.5,28.8,71.5z"/>
		<path class="st6" d="M89.3,99.2c-2.3,0-3.6-1.1-4.2-2C84.4,96,84,94.5,84,92.5c0-1.2,0.2-2.7,0.5-4.3c-2.2,2.4-4.1,4.3-5.4,5.6
			c-2.7,2.6-4.9,3.8-6.9,3.8c-1.3,0-2.5-0.8-4-2.4c-1.2-1.4-2.2-3.1-3.1-5.3c-0.9-2.2-1.4-4.5-1.4-6.8c0-1.7,0.2-3.1,0.5-4.3
			c0.4-1.2,1-2.5,2-3.7c0.9-1.1,2.3-2.6,4.2-4.4c5.1-4.6,10.1-8.1,14.9-10.3c4.9-2.3,8.7-3.4,11.5-3.4c1.1,0,2.2,0.5,3.1,1.3
			c0.7,0.7,1.3,1.6,1.8,2.5c0.5,1,0.7,1.7,0.7,2.4c0,1.2-0.5,2.2-1.5,2.8c-0.3,0.2-0.6,0.3-1,0.5l0.2,0.3c0.4,0.8,0.7,1.5,0.9,2
			c0.3,0.7,0.4,1.4,0.4,2c0,0.9-0.3,2.2-2.7,5.4c-1.5,2.1-2.6,3.6-3.2,4.6c-0.5,0.7-0.7,1.7-0.7,2.8c0,1.8,0.6,1.9,1.6,1.9
			c1,0,3.7-0.8,9.6-6l2.9-2.5v7.4l-0.4,0.5C96.7,97.7,91.9,99.2,89.3,99.2z M89.6,71c-5.2,2.6-9.1,4.8-11.6,6.8
			c-3.1,2.3-4.7,4.7-4.7,7c0,0.8,0.1,1.3,0.3,1.7c0,0,0,0,0,0.1c0.1-0.1,0.5-0.2,1-0.4c3.2-1.9,6.2-4.4,8.9-7.5
			C85.3,76.6,87.4,74,89.6,71z"/>
		<path class="st6" d="M118.2,97.9c-3.5,0-6.8-1.5-9.7-4.4c-1.8-1.8-2.8-3.5-3.3-5.3c-0.4-1.6-0.6-3.6-0.6-6.2v-1.9l0.5-0.5
			c8.1-8.5,13.8-14.6,17-18.2c1.2-5.7,4.3-6.9,6.8-6.9c0.9,0,1.9,0.3,3,0.8l0.7,0.3l0.7,2.2l-0.2,0.5c0,0.1-0.1,0.4-0.1,1.1
			c0,0.2,0,0.9,0.6,3c0.5,1.7,0.9,3.1,1.1,4.3c0.3,1.3,0.4,2.7,0.4,4.2c0,2.4-0.6,4.7-1.6,6.9c-1.1,2.1-2.6,4.2-4.6,6.1
			c-0.8,0.8-1.6,1.5-2.6,2.3c0.2-0.1,0.4-0.2,0.6-0.3c1.4-0.6,2.9-1.5,4.4-2.5c1.6-1.1,3.4-2.5,5.5-4.3l2.8-2.4v7.7l-0.5,0.5
			c-4.2,4.1-8.1,7.3-11.5,9.5C124.1,96.8,121,97.9,118.2,97.9z M114,79.8c0.8,0.4,1.5,0.8,2,1.3c0.6,0.6,1.4,1.7,2.4,3.2
			c1.3-0.7,2.3-1.6,3.1-2.6c1-1.3,1.4-3.1,1.4-5.4c0-0.3,0-0.5,0-0.8c0-0.2,0-0.5-0.1-0.7l-0.4-3.5C120.4,73.4,117.6,76.2,114,79.8z
			"/>
		<path class="st6" d="M143.3,99.8c-2,0-3.7-0.8-4.9-2.4c-1.1-1.4-1.7-3.3-1.7-5.5c0-1.4,0.3-3,0.8-4.8c0.1-0.3,0.2-0.7,0.4-1.1
			l-2.4,2.2v-8.1l0.6-0.5c2.9-2.4,6.3-6.5,10.3-12.1c-2,0-3,0.2-3.5,0.3c-0.4,0.1-0.7,0.2-1,0.3c-0.5,0.2-0.9,0.3-1.3,0.3
			c-0.9,0-1.9-0.7-1.9-2c0-1.4,0.7-3.3,2.3-5.7c1.2-2,2.3-3.4,3.4-4.4c1.2-1.1,2.6-1.8,4.3-2.2c1.5-0.3,3.6-0.5,6.2-0.5h1.1
			c1.6-2.8,3.1-4.8,4.5-6.1c1.7-1.6,3.7-2.4,5.9-2.4c3.8,0,4.4,1.8,4.4,2.9c0,0.8-0.4,1.7-2.5,4.3c-0.5,0.7-1,1.3-1.5,1.9
			c0,0,0.1,0,0.1,0c0.9,0.1,1.6,0.2,2.1,0.2l2.5,0.3l-1.2,2.2c-1.9,3.5-4.3,7.2-7.1,10.8l-0.6,0.7l-0.9-0.1
			c-0.9-0.1-1.7-0.1-2.3-0.2c0,0-2.7-0.2-3.1-0.2c-1.5,2.4-2.8,4.7-3.8,6.6c-1.1,2.1-2,4.1-2.6,5.9c-0.6,1.7-0.9,3.3-0.9,4.7
			c0,1.6,0.5,1.6,1,1.6c0.5,0,1.7-0.2,3.9-1.7c1.9-1.3,4.6-3.3,7.9-6l2.8-2.3v7.6l-0.5,0.5C154.9,95,148.1,99.8,143.3,99.8z"/>
		<path class="st6" d="M170,98.5c-2.9,0-5.3-1.6-7.2-4.9c-1.7-2.9-2.6-6.2-2.6-9.7c0-4.8,2.5-10.2,7.7-16.7c1.6-2,2.8-3.3,3.9-4
			c1.2-0.9,2.6-1.3,4.1-1.3c1.2,0,2.3,0.2,3.4,0.7c2,0.8,2.4,2,2.4,2.9c0,2-1.1,4.6-3.6,8.1c-2.1,3.1-4.6,5.8-7.4,8.1l-0.8,3.5
			c-0.1,0.4-0.2,0.9-0.2,1.4c0,0.7,0.1,0.9,0.2,0.9l0,0c0,0,0.1,0,0.3,0c0.2,0,2-0.6,8.5-7.2c0.2-2.2,1-4.7,2.6-7.4
			c1.6-2.9,3.4-5.4,5.3-7.6c2.3-2.6,4-3.7,5.5-3.7c0.9,0,3.9,0.3,3.9,4.6c0,1.3-0.3,2.9-0.9,4.7c-0.6,1.7-1.5,3.6-2.6,5.6
			c-0.9,1.7-2.1,3.4-3.4,5.1c0.3,0.3,0.4,0.4,0.4,0.4c0.3,0,0.9-0.2,1.4-0.5c0.8-0.5,1.8-1.2,3-2.2l2.8-2.2v7.7l-0.7,0.5
			c-1.9,1.5-3.4,2.5-4.6,3.1c-1.3,0.6-2.9,1-4.8,1c-0.5,0-1.4-0.1-3.1-0.9c-3,3.1-5.4,5.5-7.4,7.1C173.8,97.5,171.8,98.5,170,98.5z"
			/>
		<path class="st6" d="M202.6,98.2c-2.3,0-5.5-0.9-7.5-5.2c-1.4-3-2.1-6.3-2.1-9.9c0-1.4,0.1-2.7,0.4-4c0.3-1.3,0.6-2.3,1.1-3.2
			c0.4-0.8,1.1-2,2.1-3.7c5-7.8,9.7-11.6,14.2-11.6c4.4,0,4.7,3.1,4.7,4c0,1.4-0.7,3.2-2.2,5.7c-1.4,2.4-2.6,4.1-3.8,5.1
			c-2.7,2.7-4.6,4.5-5.4,5.5c-0.6,0.8-0.9,1.6-0.9,2.6c0,0.7,0.2,1.2,0.7,1.6c0.6,0.5,1.3,0.7,2.3,0.7c1.2,0,2.6-0.5,4.2-1.4
			c1.8-1.1,4.1-2.8,6.9-5.2l2.8-2.4v7.9l-0.4,0.5c-3.2,4.2-6.3,7.4-9.2,9.5C207.5,97.1,204.9,98.2,202.6,98.2z M215.1,60.5
			c-1.2,0-2.4-0.4-3.4-1.3c-1.1-0.9-1.7-2.2-1.7-3.7c0-1.8,0.8-3.8,2.4-5.8c1.7-2.2,3.6-3.3,5.6-3.3c1.4,0,2.6,0.5,3.6,1.4
			c1,0.9,1.5,2.2,1.5,3.9c0,1.8-0.8,3.7-2.4,5.7C219,59.5,217.1,60.5,215.1,60.5z"/>
		<path class="st6" d="M225,99.1c-2.2,0-5.1-0.8-7.2-4.8c-1.4-2.8-2.2-6.3-2.2-10.4c0-5.4,1.6-11.4,4.9-17.7
			c3.2-6.2,7-12.1,11.5-17.5c4.5-5.4,8.8-9.9,13-13.4c5.9-5,8.2-5.6,9.5-5.6c0.9,0,3.8,0.3,3.8,4.6c0,9-10.8,23.9-32.9,45.4
			c0,0.5,0,1.3,0,2.7c0,2.3,0.3,5,1.9,5c0.5,0,1.1-0.3,1.8-0.8c0.8-0.6,1.9-1.7,3.5-3.4c-0.6-1.5-0.9-2.6-0.9-3.5
			c0-2.1,0.8-4.4,2.5-6.8c1.6-2.2,3.3-4.1,5.3-5.7c2.3-1.8,3.9-2.7,5.2-2.7c0.9,0,3.7,0.3,3.7,4.6c0,1.7-0.4,3.6-1.3,5.9
			c-0.7,1.8-1.6,3.8-2.7,6c0,0,0,0,0,0c0,0,0.2,0,0.5,0c1.1,0,2.6-0.6,4.3-1.7l2.7-1.8v7.3l-0.8,0.5c-3.7,2.3-6.6,3.5-8.9,3.5
			c-0.9,0-1.8-0.1-2.8-0.3c-2.7,3.4-5.1,5.9-7.1,7.5C230,98.1,227.5,99.1,225,99.1z M247.3,42.8c-2.2,2.3-4.7,5.5-7.6,9.5
			c-3.6,5.1-6.4,9.1-8.1,11.9c1.4-1.7,3.1-3.8,5.1-6.3c3.1-3.9,5.6-7.2,7.4-9.8c1.4-2.1,2.6-3.9,3.4-5.5
			C247.5,42.7,247.4,42.8,247.3,42.8z"/>
		<path class="st6" d="M259.3,99.1c-3.5,0-6.2-1.4-8.3-4.1c-1.9-2.5-2.9-6-2.9-10.3c0-3.7,0.9-7.1,2.6-10.2c1.7-2.9,4.4-6.1,8.2-9.3
			c2.6-2.2,5.2-3.9,7.8-5.1c2.7-1.2,5.1-1.8,7.2-1.8c1.9,0,3.5,0.5,4.7,1.4c0.9,0.7,2,2.1,2,4.5c0,2.4-0.9,4.8-2.6,7.2
			c-1.6,2.2-4.2,4.4-7.5,6.5c-3,1.9-6.6,3.7-10.8,5.5v0.1c0,1.5,0.3,2.6,1,3.4c0.6,0.7,1.4,1,2.4,1c1.3,0,2.8-0.3,4.3-1
			c1.6-0.7,3.2-1.6,4.8-2.8c1.7-1.2,3.7-2.9,6.1-4.9l2.8-2.4v7.3l-0.4,0.5c-3.8,4.5-7.3,8-10.7,10.5C266.6,97.8,263,99.1,259.3,99.1
			z M270.1,67.7c-0.3,0.1-0.6,0.3-0.9,0.5c-1.2,0.7-2.5,1.6-3.7,2.7c-1.2,1.1-2.4,2.4-3.3,3.9c-0.2,0.4-0.5,0.8-0.7,1.2
			c1.3-0.7,2.5-1.5,3.6-2.4c1.9-1.6,3.4-3.1,4.3-4.5C269.7,68.6,269.9,68.1,270.1,67.7z"/>
	</g>
</g>
</svg>
